<mxfile host="app.diagrams.net" modified="2022-02-17T07:43:14.478Z" agent="5.0 (Macintosh; Intel Mac OS X 10_15_7) AppleWebKit/537.36 (KHTML, like Gecko) Chrome/98.0.4758.80 Safari/537.36" etag="keXDZMnRxl678i2tdsJu" version="16.5.6" type="github">
  <diagram id="t3s6REFhiwwXwHESMnRB" name="Page-1">
    <mxGraphModel dx="946" dy="646" grid="1" gridSize="10" guides="1" tooltips="1" connect="1" arrows="1" fold="1" page="1" pageScale="1" pageWidth="827" pageHeight="1169" math="0" shadow="0">
      <root>
        <mxCell id="0" />
        <mxCell id="1" parent="0" />
        <mxCell id="lxedp-UpiUMQ92V4cm0w-1" value="" style="group" parent="1" vertex="1" connectable="0">
          <mxGeometry x="50" y="60" width="320" height="180" as="geometry" />
        </mxCell>
        <mxCell id="6ZQUbBnNkufjPJ70rE0Q-1" value="&lt;font style=&quot;font-size: 18px&quot;&gt;s&lt;/font&gt;" style="ellipse;whiteSpace=wrap;html=1;aspect=fixed;" parent="lxedp-UpiUMQ92V4cm0w-1" vertex="1">
          <mxGeometry y="80" width="40" height="40" as="geometry" />
        </mxCell>
        <mxCell id="6ZQUbBnNkufjPJ70rE0Q-2" value="&lt;font style=&quot;font-size: 18px&quot;&gt;t&lt;/font&gt;" style="ellipse;whiteSpace=wrap;html=1;aspect=fixed;" parent="lxedp-UpiUMQ92V4cm0w-1" vertex="1">
          <mxGeometry x="280" y="80" width="40" height="40" as="geometry" />
        </mxCell>
        <mxCell id="6ZQUbBnNkufjPJ70rE0Q-3" value="&lt;font style=&quot;font-size: 18px&quot;&gt;1&lt;/font&gt;" style="ellipse;whiteSpace=wrap;html=1;aspect=fixed;" parent="lxedp-UpiUMQ92V4cm0w-1" vertex="1">
          <mxGeometry x="80" width="40" height="40" as="geometry" />
        </mxCell>
        <mxCell id="6ZQUbBnNkufjPJ70rE0Q-4" value="&lt;font style=&quot;font-size: 18px&quot;&gt;2&lt;/font&gt;" style="ellipse;whiteSpace=wrap;html=1;aspect=fixed;" parent="lxedp-UpiUMQ92V4cm0w-1" vertex="1">
          <mxGeometry x="200" width="40" height="40" as="geometry" />
        </mxCell>
        <mxCell id="6ZQUbBnNkufjPJ70rE0Q-5" value="&lt;font style=&quot;font-size: 18px&quot;&gt;3&lt;/font&gt;" style="ellipse;whiteSpace=wrap;html=1;aspect=fixed;" parent="lxedp-UpiUMQ92V4cm0w-1" vertex="1">
          <mxGeometry x="80" y="140" width="40" height="40" as="geometry" />
        </mxCell>
        <mxCell id="6ZQUbBnNkufjPJ70rE0Q-6" value="&lt;font style=&quot;font-size: 17px&quot;&gt;4&lt;/font&gt;" style="ellipse;whiteSpace=wrap;html=1;aspect=fixed;" parent="lxedp-UpiUMQ92V4cm0w-1" vertex="1">
          <mxGeometry x="200" y="140" width="40" height="40" as="geometry" />
        </mxCell>
        <mxCell id="6ZQUbBnNkufjPJ70rE0Q-7" value="" style="endArrow=classic;html=1;rounded=0;exitX=0.75;exitY=-0.025;exitDx=0;exitDy=0;exitPerimeter=0;" parent="lxedp-UpiUMQ92V4cm0w-1" source="6ZQUbBnNkufjPJ70rE0Q-1" target="6ZQUbBnNkufjPJ70rE0Q-3" edge="1">
          <mxGeometry relative="1" as="geometry">
            <mxPoint x="240" y="70" as="sourcePoint" />
            <mxPoint x="340" y="70" as="targetPoint" />
          </mxGeometry>
        </mxCell>
        <mxCell id="6ZQUbBnNkufjPJ70rE0Q-8" value="&lt;font style=&quot;font-size: 13px&quot;&gt;22&lt;/font&gt;" style="edgeLabel;resizable=0;html=1;align=center;verticalAlign=middle;" parent="6ZQUbBnNkufjPJ70rE0Q-7" connectable="0" vertex="1">
          <mxGeometry relative="1" as="geometry" />
        </mxCell>
        <mxCell id="6ZQUbBnNkufjPJ70rE0Q-9" value="" style="endArrow=classic;html=1;rounded=0;exitX=1;exitY=1;exitDx=0;exitDy=0;entryX=0;entryY=0;entryDx=0;entryDy=0;" parent="lxedp-UpiUMQ92V4cm0w-1" source="6ZQUbBnNkufjPJ70rE0Q-1" target="6ZQUbBnNkufjPJ70rE0Q-5" edge="1">
          <mxGeometry relative="1" as="geometry">
            <mxPoint x="40" y="89" as="sourcePoint" />
            <mxPoint x="94.70744273836931" y="42.889441120517404" as="targetPoint" />
          </mxGeometry>
        </mxCell>
        <mxCell id="6ZQUbBnNkufjPJ70rE0Q-10" value="4" style="edgeLabel;resizable=0;html=1;align=center;verticalAlign=middle;fontSize=14;" parent="6ZQUbBnNkufjPJ70rE0Q-9" connectable="0" vertex="1">
          <mxGeometry relative="1" as="geometry" />
        </mxCell>
        <mxCell id="6ZQUbBnNkufjPJ70rE0Q-11" value="" style="endArrow=classic;html=1;rounded=0;exitX=0.5;exitY=1;exitDx=0;exitDy=0;entryX=0.5;entryY=0;entryDx=0;entryDy=0;" parent="lxedp-UpiUMQ92V4cm0w-1" source="6ZQUbBnNkufjPJ70rE0Q-3" target="6ZQUbBnNkufjPJ70rE0Q-5" edge="1">
          <mxGeometry relative="1" as="geometry">
            <mxPoint x="240" y="70" as="sourcePoint" />
            <mxPoint x="160" y="90" as="targetPoint" />
          </mxGeometry>
        </mxCell>
        <mxCell id="6ZQUbBnNkufjPJ70rE0Q-12" value="7" style="edgeLabel;resizable=0;html=1;align=center;verticalAlign=middle;fontSize=13;" parent="6ZQUbBnNkufjPJ70rE0Q-11" connectable="0" vertex="1">
          <mxGeometry relative="1" as="geometry" />
        </mxCell>
        <mxCell id="6ZQUbBnNkufjPJ70rE0Q-18" value="" style="endArrow=classic;html=1;rounded=0;exitX=1;exitY=0;exitDx=0;exitDy=0;entryX=0;entryY=1;entryDx=0;entryDy=0;" parent="lxedp-UpiUMQ92V4cm0w-1" source="6ZQUbBnNkufjPJ70rE0Q-6" target="6ZQUbBnNkufjPJ70rE0Q-2" edge="1">
          <mxGeometry relative="1" as="geometry">
            <mxPoint x="240" y="70" as="sourcePoint" />
            <mxPoint x="340" y="70" as="targetPoint" />
          </mxGeometry>
        </mxCell>
        <mxCell id="6ZQUbBnNkufjPJ70rE0Q-19" value="20" style="edgeLabel;resizable=0;html=1;align=center;verticalAlign=middle;fontSize=13;" parent="6ZQUbBnNkufjPJ70rE0Q-18" connectable="0" vertex="1">
          <mxGeometry relative="1" as="geometry" />
        </mxCell>
        <mxCell id="6ZQUbBnNkufjPJ70rE0Q-20" value="" style="endArrow=classic;html=1;rounded=0;exitX=1;exitY=1;exitDx=0;exitDy=0;entryX=0;entryY=0;entryDx=0;entryDy=0;" parent="lxedp-UpiUMQ92V4cm0w-1" source="6ZQUbBnNkufjPJ70rE0Q-4" target="6ZQUbBnNkufjPJ70rE0Q-2" edge="1">
          <mxGeometry relative="1" as="geometry">
            <mxPoint x="240" y="70" as="sourcePoint" />
            <mxPoint x="340" y="70" as="targetPoint" />
          </mxGeometry>
        </mxCell>
        <mxCell id="6ZQUbBnNkufjPJ70rE0Q-21" value="15" style="edgeLabel;resizable=0;html=1;align=center;verticalAlign=middle;fontSize=13;" parent="6ZQUbBnNkufjPJ70rE0Q-20" connectable="0" vertex="1">
          <mxGeometry relative="1" as="geometry" />
        </mxCell>
        <mxCell id="6ZQUbBnNkufjPJ70rE0Q-22" value="" style="endArrow=classic;html=1;rounded=0;exitX=1;exitY=0.5;exitDx=0;exitDy=0;entryX=0;entryY=0.5;entryDx=0;entryDy=0;" parent="lxedp-UpiUMQ92V4cm0w-1" source="6ZQUbBnNkufjPJ70rE0Q-3" target="6ZQUbBnNkufjPJ70rE0Q-4" edge="1">
          <mxGeometry relative="1" as="geometry">
            <mxPoint x="240" y="70" as="sourcePoint" />
            <mxPoint x="340" y="70" as="targetPoint" />
          </mxGeometry>
        </mxCell>
        <mxCell id="6ZQUbBnNkufjPJ70rE0Q-23" value="20" style="edgeLabel;resizable=0;html=1;align=center;verticalAlign=middle;fontSize=13;" parent="6ZQUbBnNkufjPJ70rE0Q-22" connectable="0" vertex="1">
          <mxGeometry relative="1" as="geometry" />
        </mxCell>
        <mxCell id="6ZQUbBnNkufjPJ70rE0Q-24" value="" style="endArrow=classic;html=1;rounded=0;exitX=1;exitY=0.5;exitDx=0;exitDy=0;entryX=0;entryY=0.5;entryDx=0;entryDy=0;" parent="lxedp-UpiUMQ92V4cm0w-1" edge="1">
          <mxGeometry relative="1" as="geometry">
            <mxPoint x="120" y="159.5" as="sourcePoint" />
            <mxPoint x="200" y="159.5" as="targetPoint" />
          </mxGeometry>
        </mxCell>
        <mxCell id="6ZQUbBnNkufjPJ70rE0Q-25" value="18" style="edgeLabel;resizable=0;html=1;align=center;verticalAlign=middle;fontSize=13;" parent="6ZQUbBnNkufjPJ70rE0Q-24" connectable="0" vertex="1">
          <mxGeometry relative="1" as="geometry" />
        </mxCell>
        <mxCell id="6ZQUbBnNkufjPJ70rE0Q-30" value="" style="endArrow=classic;html=1;rounded=0;entryX=0.5;entryY=1;entryDx=0;entryDy=0;" parent="lxedp-UpiUMQ92V4cm0w-1" target="6ZQUbBnNkufjPJ70rE0Q-4" edge="1">
          <mxGeometry relative="1" as="geometry">
            <mxPoint x="220" y="140" as="sourcePoint" />
            <mxPoint x="150" y="100" as="targetPoint" />
          </mxGeometry>
        </mxCell>
        <mxCell id="6ZQUbBnNkufjPJ70rE0Q-31" value="13" style="edgeLabel;resizable=0;html=1;align=center;verticalAlign=middle;fontSize=13;" parent="6ZQUbBnNkufjPJ70rE0Q-30" connectable="0" vertex="1">
          <mxGeometry relative="1" as="geometry" />
        </mxCell>
        <mxCell id="lxedp-UpiUMQ92V4cm0w-2" value="" style="group" parent="1" vertex="1" connectable="0">
          <mxGeometry x="50" y="360" width="320" height="180" as="geometry" />
        </mxCell>
        <mxCell id="lxedp-UpiUMQ92V4cm0w-3" value="&lt;font style=&quot;font-size: 18px&quot;&gt;s&lt;/font&gt;" style="ellipse;whiteSpace=wrap;html=1;aspect=fixed;" parent="lxedp-UpiUMQ92V4cm0w-2" vertex="1">
          <mxGeometry y="80" width="40" height="40" as="geometry" />
        </mxCell>
        <mxCell id="lxedp-UpiUMQ92V4cm0w-4" value="&lt;font style=&quot;font-size: 18px&quot;&gt;t&lt;/font&gt;" style="ellipse;whiteSpace=wrap;html=1;aspect=fixed;" parent="lxedp-UpiUMQ92V4cm0w-2" vertex="1">
          <mxGeometry x="280" y="80" width="40" height="40" as="geometry" />
        </mxCell>
        <mxCell id="lxedp-UpiUMQ92V4cm0w-5" value="&lt;font style=&quot;font-size: 18px&quot;&gt;1&lt;/font&gt;" style="ellipse;whiteSpace=wrap;html=1;aspect=fixed;" parent="lxedp-UpiUMQ92V4cm0w-2" vertex="1">
          <mxGeometry x="80" width="40" height="40" as="geometry" />
        </mxCell>
        <mxCell id="lxedp-UpiUMQ92V4cm0w-6" value="&lt;font style=&quot;font-size: 18px&quot;&gt;2&lt;/font&gt;" style="ellipse;whiteSpace=wrap;html=1;aspect=fixed;" parent="lxedp-UpiUMQ92V4cm0w-2" vertex="1">
          <mxGeometry x="200" width="40" height="40" as="geometry" />
        </mxCell>
        <mxCell id="lxedp-UpiUMQ92V4cm0w-7" value="&lt;font style=&quot;font-size: 18px&quot;&gt;3&lt;/font&gt;" style="ellipse;whiteSpace=wrap;html=1;aspect=fixed;" parent="lxedp-UpiUMQ92V4cm0w-2" vertex="1">
          <mxGeometry x="80" y="140" width="40" height="40" as="geometry" />
        </mxCell>
        <mxCell id="lxedp-UpiUMQ92V4cm0w-8" value="&lt;font style=&quot;font-size: 17px&quot;&gt;4&lt;/font&gt;" style="ellipse;whiteSpace=wrap;html=1;aspect=fixed;" parent="lxedp-UpiUMQ92V4cm0w-2" vertex="1">
          <mxGeometry x="200" y="140" width="40" height="40" as="geometry" />
        </mxCell>
        <mxCell id="lxedp-UpiUMQ92V4cm0w-9" value="" style="endArrow=classic;html=1;rounded=0;exitX=0.75;exitY=-0.025;exitDx=0;exitDy=0;exitPerimeter=0;fillColor=#d5e8d4;strokeColor=#82b366;" parent="lxedp-UpiUMQ92V4cm0w-2" source="lxedp-UpiUMQ92V4cm0w-3" target="lxedp-UpiUMQ92V4cm0w-5" edge="1">
          <mxGeometry relative="1" as="geometry">
            <mxPoint x="240" y="70" as="sourcePoint" />
            <mxPoint x="340" y="70" as="targetPoint" />
          </mxGeometry>
        </mxCell>
        <mxCell id="lxedp-UpiUMQ92V4cm0w-10" value="&lt;font style=&quot;font-size: 13px&quot;&gt;22&lt;/font&gt;" style="edgeLabel;resizable=0;html=1;align=center;verticalAlign=middle;" parent="lxedp-UpiUMQ92V4cm0w-9" connectable="0" vertex="1">
          <mxGeometry relative="1" as="geometry" />
        </mxCell>
        <mxCell id="lxedp-UpiUMQ92V4cm0w-11" value="" style="endArrow=classic;html=1;rounded=0;exitX=1;exitY=1;exitDx=0;exitDy=0;entryX=0;entryY=0;entryDx=0;entryDy=0;" parent="lxedp-UpiUMQ92V4cm0w-2" source="lxedp-UpiUMQ92V4cm0w-3" target="lxedp-UpiUMQ92V4cm0w-7" edge="1">
          <mxGeometry relative="1" as="geometry">
            <mxPoint x="40" y="89" as="sourcePoint" />
            <mxPoint x="94.70744273836931" y="42.889441120517404" as="targetPoint" />
          </mxGeometry>
        </mxCell>
        <mxCell id="lxedp-UpiUMQ92V4cm0w-12" value="4" style="edgeLabel;resizable=0;html=1;align=center;verticalAlign=middle;fontSize=14;" parent="lxedp-UpiUMQ92V4cm0w-11" connectable="0" vertex="1">
          <mxGeometry relative="1" as="geometry" />
        </mxCell>
        <mxCell id="lxedp-UpiUMQ92V4cm0w-13" value="" style="endArrow=classic;html=1;rounded=0;exitX=0.5;exitY=1;exitDx=0;exitDy=0;" parent="lxedp-UpiUMQ92V4cm0w-2" source="lxedp-UpiUMQ92V4cm0w-5" edge="1">
          <mxGeometry relative="1" as="geometry">
            <mxPoint x="240" y="70" as="sourcePoint" />
            <mxPoint x="100" y="140" as="targetPoint" />
          </mxGeometry>
        </mxCell>
        <mxCell id="lxedp-UpiUMQ92V4cm0w-14" value="7" style="edgeLabel;resizable=0;html=1;align=center;verticalAlign=middle;fontSize=13;" parent="lxedp-UpiUMQ92V4cm0w-13" connectable="0" vertex="1">
          <mxGeometry relative="1" as="geometry" />
        </mxCell>
        <mxCell id="lxedp-UpiUMQ92V4cm0w-15" value="" style="endArrow=classic;html=1;rounded=0;exitX=1;exitY=0;exitDx=0;exitDy=0;entryX=0;entryY=1;entryDx=0;entryDy=0;" parent="lxedp-UpiUMQ92V4cm0w-2" source="lxedp-UpiUMQ92V4cm0w-8" target="lxedp-UpiUMQ92V4cm0w-4" edge="1">
          <mxGeometry relative="1" as="geometry">
            <mxPoint x="240" y="70" as="sourcePoint" />
            <mxPoint x="340" y="70" as="targetPoint" />
          </mxGeometry>
        </mxCell>
        <mxCell id="lxedp-UpiUMQ92V4cm0w-16" value="20" style="edgeLabel;resizable=0;html=1;align=center;verticalAlign=middle;fontSize=13;" parent="lxedp-UpiUMQ92V4cm0w-15" connectable="0" vertex="1">
          <mxGeometry relative="1" as="geometry" />
        </mxCell>
        <mxCell id="lxedp-UpiUMQ92V4cm0w-17" value="" style="endArrow=classic;html=1;rounded=0;exitX=1;exitY=1;exitDx=0;exitDy=0;entryX=0;entryY=0;entryDx=0;entryDy=0;fillColor=#d5e8d4;strokeColor=#82b366;" parent="lxedp-UpiUMQ92V4cm0w-2" source="lxedp-UpiUMQ92V4cm0w-6" target="lxedp-UpiUMQ92V4cm0w-4" edge="1">
          <mxGeometry relative="1" as="geometry">
            <mxPoint x="240" y="70" as="sourcePoint" />
            <mxPoint x="340" y="70" as="targetPoint" />
          </mxGeometry>
        </mxCell>
        <mxCell id="lxedp-UpiUMQ92V4cm0w-18" value="15" style="edgeLabel;resizable=0;html=1;align=center;verticalAlign=middle;fontSize=13;" parent="lxedp-UpiUMQ92V4cm0w-17" connectable="0" vertex="1">
          <mxGeometry relative="1" as="geometry" />
        </mxCell>
        <mxCell id="lxedp-UpiUMQ92V4cm0w-19" value="" style="endArrow=classic;html=1;rounded=0;exitX=1;exitY=0.5;exitDx=0;exitDy=0;entryX=0;entryY=0.5;entryDx=0;entryDy=0;fillColor=#d5e8d4;strokeColor=#82b366;" parent="lxedp-UpiUMQ92V4cm0w-2" source="lxedp-UpiUMQ92V4cm0w-5" target="lxedp-UpiUMQ92V4cm0w-6" edge="1">
          <mxGeometry relative="1" as="geometry">
            <mxPoint x="240" y="70" as="sourcePoint" />
            <mxPoint x="340" y="70" as="targetPoint" />
          </mxGeometry>
        </mxCell>
        <mxCell id="lxedp-UpiUMQ92V4cm0w-20" value="20" style="edgeLabel;resizable=0;html=1;align=center;verticalAlign=middle;fontSize=13;" parent="lxedp-UpiUMQ92V4cm0w-19" connectable="0" vertex="1">
          <mxGeometry relative="1" as="geometry" />
        </mxCell>
        <mxCell id="lxedp-UpiUMQ92V4cm0w-21" value="" style="endArrow=classic;html=1;rounded=0;exitX=1;exitY=0.5;exitDx=0;exitDy=0;entryX=0;entryY=0.5;entryDx=0;entryDy=0;" parent="lxedp-UpiUMQ92V4cm0w-2" edge="1">
          <mxGeometry relative="1" as="geometry">
            <mxPoint x="120" y="159.5" as="sourcePoint" />
            <mxPoint x="200" y="159.5" as="targetPoint" />
          </mxGeometry>
        </mxCell>
        <mxCell id="lxedp-UpiUMQ92V4cm0w-22" value="18" style="edgeLabel;resizable=0;html=1;align=center;verticalAlign=middle;fontSize=13;" parent="lxedp-UpiUMQ92V4cm0w-21" connectable="0" vertex="1">
          <mxGeometry relative="1" as="geometry" />
        </mxCell>
        <mxCell id="lxedp-UpiUMQ92V4cm0w-23" value="" style="endArrow=classic;html=1;rounded=0;entryX=0.5;entryY=1;entryDx=0;entryDy=0;" parent="lxedp-UpiUMQ92V4cm0w-2" target="lxedp-UpiUMQ92V4cm0w-6" edge="1">
          <mxGeometry relative="1" as="geometry">
            <mxPoint x="220" y="140" as="sourcePoint" />
            <mxPoint x="140" y="90" as="targetPoint" />
          </mxGeometry>
        </mxCell>
        <mxCell id="lxedp-UpiUMQ92V4cm0w-24" value="13" style="edgeLabel;resizable=0;html=1;align=center;verticalAlign=middle;fontSize=13;" parent="lxedp-UpiUMQ92V4cm0w-23" connectable="0" vertex="1">
          <mxGeometry relative="1" as="geometry" />
        </mxCell>
        <mxCell id="lxedp-UpiUMQ92V4cm0w-57" value="" style="group" parent="1" vertex="1" connectable="0">
          <mxGeometry x="50" y="610" width="320" height="200" as="geometry" />
        </mxCell>
        <mxCell id="lxedp-UpiUMQ92V4cm0w-53" value="" style="curved=1;endArrow=classic;html=1;rounded=0;fontSize=18;strokeColor=#b85450;strokeWidth=1;exitX=0;exitY=0;exitDx=0;exitDy=0;fillColor=#f8cecc;" parent="lxedp-UpiUMQ92V4cm0w-57" source="lxedp-UpiUMQ92V4cm0w-29" edge="1">
          <mxGeometry width="50" height="50" relative="1" as="geometry">
            <mxPoint x="340" y="40" as="sourcePoint" />
            <mxPoint x="10" y="100" as="targetPoint" />
            <Array as="points">
              <mxPoint x="40" y="26" />
            </Array>
          </mxGeometry>
        </mxCell>
        <mxCell id="lxedp-UpiUMQ92V4cm0w-55" value="15" style="edgeLabel;html=1;align=center;verticalAlign=middle;resizable=0;points=[];fontSize=14;container=0;" parent="lxedp-UpiUMQ92V4cm0w-53" vertex="1" connectable="0">
          <mxGeometry x="0.0894" y="8" relative="1" as="geometry">
            <mxPoint as="offset" />
          </mxGeometry>
        </mxCell>
        <mxCell id="lxedp-UpiUMQ92V4cm0w-27" value="&lt;font style=&quot;font-size: 18px&quot;&gt;s&lt;/font&gt;" style="ellipse;whiteSpace=wrap;html=1;aspect=fixed;container=0;" parent="lxedp-UpiUMQ92V4cm0w-57" vertex="1">
          <mxGeometry y="100" width="40" height="40" as="geometry" />
        </mxCell>
        <mxCell id="lxedp-UpiUMQ92V4cm0w-28" value="&lt;font style=&quot;font-size: 18px&quot;&gt;t&lt;/font&gt;" style="ellipse;whiteSpace=wrap;html=1;aspect=fixed;container=0;" parent="lxedp-UpiUMQ92V4cm0w-57" vertex="1">
          <mxGeometry x="280" y="100" width="40" height="40" as="geometry" />
        </mxCell>
        <mxCell id="lxedp-UpiUMQ92V4cm0w-29" value="&lt;font style=&quot;font-size: 18px&quot;&gt;1&lt;/font&gt;" style="ellipse;whiteSpace=wrap;html=1;aspect=fixed;container=0;" parent="lxedp-UpiUMQ92V4cm0w-57" vertex="1">
          <mxGeometry x="80" y="20" width="40" height="40" as="geometry" />
        </mxCell>
        <mxCell id="lxedp-UpiUMQ92V4cm0w-30" value="&lt;font style=&quot;font-size: 18px&quot;&gt;2&lt;/font&gt;" style="ellipse;whiteSpace=wrap;html=1;aspect=fixed;container=0;" parent="lxedp-UpiUMQ92V4cm0w-57" vertex="1">
          <mxGeometry x="200" y="20" width="40" height="40" as="geometry" />
        </mxCell>
        <mxCell id="lxedp-UpiUMQ92V4cm0w-31" value="&lt;font style=&quot;font-size: 18px&quot;&gt;3&lt;/font&gt;" style="ellipse;whiteSpace=wrap;html=1;aspect=fixed;container=0;" parent="lxedp-UpiUMQ92V4cm0w-57" vertex="1">
          <mxGeometry x="80" y="160" width="40" height="40" as="geometry" />
        </mxCell>
        <mxCell id="lxedp-UpiUMQ92V4cm0w-32" value="&lt;font style=&quot;font-size: 17px&quot;&gt;4&lt;/font&gt;" style="ellipse;whiteSpace=wrap;html=1;aspect=fixed;container=0;" parent="lxedp-UpiUMQ92V4cm0w-57" vertex="1">
          <mxGeometry x="200" y="160" width="40" height="40" as="geometry" />
        </mxCell>
        <mxCell id="lxedp-UpiUMQ92V4cm0w-33" value="" style="endArrow=classic;html=1;rounded=0;exitX=0.75;exitY=-0.025;exitDx=0;exitDy=0;exitPerimeter=0;fillColor=#d5e8d4;strokeColor=#82b366;" parent="lxedp-UpiUMQ92V4cm0w-57" source="lxedp-UpiUMQ92V4cm0w-27" target="lxedp-UpiUMQ92V4cm0w-29" edge="1">
          <mxGeometry relative="1" as="geometry">
            <mxPoint x="240" y="90" as="sourcePoint" />
            <mxPoint x="340" y="90" as="targetPoint" />
          </mxGeometry>
        </mxCell>
        <mxCell id="lxedp-UpiUMQ92V4cm0w-34" value="&lt;font style=&quot;font-size: 13px&quot;&gt;7&lt;/font&gt;" style="edgeLabel;resizable=0;html=1;align=center;verticalAlign=middle;container=0;" parent="lxedp-UpiUMQ92V4cm0w-33" connectable="0" vertex="1">
          <mxGeometry relative="1" as="geometry" />
        </mxCell>
        <mxCell id="lxedp-UpiUMQ92V4cm0w-35" value="" style="endArrow=classic;html=1;rounded=0;exitX=1;exitY=1;exitDx=0;exitDy=0;entryX=0;entryY=0;entryDx=0;entryDy=0;" parent="lxedp-UpiUMQ92V4cm0w-57" source="lxedp-UpiUMQ92V4cm0w-27" target="lxedp-UpiUMQ92V4cm0w-31" edge="1">
          <mxGeometry relative="1" as="geometry">
            <mxPoint x="40" y="109" as="sourcePoint" />
            <mxPoint x="94.70744273836931" y="62.889441120517404" as="targetPoint" />
          </mxGeometry>
        </mxCell>
        <mxCell id="lxedp-UpiUMQ92V4cm0w-36" value="4" style="edgeLabel;resizable=0;html=1;align=center;verticalAlign=middle;fontSize=14;container=0;" parent="lxedp-UpiUMQ92V4cm0w-35" connectable="0" vertex="1">
          <mxGeometry relative="1" as="geometry" />
        </mxCell>
        <mxCell id="lxedp-UpiUMQ92V4cm0w-37" value="" style="endArrow=classic;html=1;rounded=0;exitX=0.5;exitY=1;exitDx=0;exitDy=0;entryX=0.5;entryY=0;entryDx=0;entryDy=0;" parent="lxedp-UpiUMQ92V4cm0w-57" source="lxedp-UpiUMQ92V4cm0w-29" target="lxedp-UpiUMQ92V4cm0w-31" edge="1">
          <mxGeometry relative="1" as="geometry">
            <mxPoint x="240" y="90" as="sourcePoint" />
            <mxPoint x="160" y="110" as="targetPoint" />
          </mxGeometry>
        </mxCell>
        <mxCell id="lxedp-UpiUMQ92V4cm0w-38" value="7" style="edgeLabel;resizable=0;html=1;align=center;verticalAlign=middle;fontSize=13;container=0;" parent="lxedp-UpiUMQ92V4cm0w-37" connectable="0" vertex="1">
          <mxGeometry relative="1" as="geometry" />
        </mxCell>
        <mxCell id="lxedp-UpiUMQ92V4cm0w-39" value="" style="endArrow=classic;html=1;rounded=0;exitX=1;exitY=0;exitDx=0;exitDy=0;entryX=0;entryY=1;entryDx=0;entryDy=0;" parent="lxedp-UpiUMQ92V4cm0w-57" source="lxedp-UpiUMQ92V4cm0w-32" target="lxedp-UpiUMQ92V4cm0w-28" edge="1">
          <mxGeometry relative="1" as="geometry">
            <mxPoint x="240" y="90" as="sourcePoint" />
            <mxPoint x="340" y="90" as="targetPoint" />
          </mxGeometry>
        </mxCell>
        <mxCell id="lxedp-UpiUMQ92V4cm0w-40" value="20" style="edgeLabel;resizable=0;html=1;align=center;verticalAlign=middle;fontSize=13;container=0;" parent="lxedp-UpiUMQ92V4cm0w-39" connectable="0" vertex="1">
          <mxGeometry relative="1" as="geometry" />
        </mxCell>
        <mxCell id="lxedp-UpiUMQ92V4cm0w-41" value="" style="endArrow=classic;html=1;rounded=0;exitX=1;exitY=1;exitDx=0;exitDy=0;entryX=0;entryY=0;entryDx=0;entryDy=0;fillColor=#d5e8d4;strokeColor=#82b366;" parent="lxedp-UpiUMQ92V4cm0w-57" source="lxedp-UpiUMQ92V4cm0w-30" target="lxedp-UpiUMQ92V4cm0w-28" edge="1">
          <mxGeometry relative="1" as="geometry">
            <mxPoint x="240" y="90" as="sourcePoint" />
            <mxPoint x="340" y="90" as="targetPoint" />
          </mxGeometry>
        </mxCell>
        <mxCell id="lxedp-UpiUMQ92V4cm0w-42" value="0" style="edgeLabel;resizable=0;html=1;align=center;verticalAlign=middle;fontSize=13;container=0;" parent="lxedp-UpiUMQ92V4cm0w-41" connectable="0" vertex="1">
          <mxGeometry relative="1" as="geometry" />
        </mxCell>
        <mxCell id="lxedp-UpiUMQ92V4cm0w-43" value="" style="endArrow=classic;html=1;rounded=0;exitX=1;exitY=0.5;exitDx=0;exitDy=0;entryX=0;entryY=0.5;entryDx=0;entryDy=0;fillColor=#d5e8d4;strokeColor=#82b366;" parent="lxedp-UpiUMQ92V4cm0w-57" source="lxedp-UpiUMQ92V4cm0w-29" target="lxedp-UpiUMQ92V4cm0w-30" edge="1">
          <mxGeometry relative="1" as="geometry">
            <mxPoint x="240" y="90" as="sourcePoint" />
            <mxPoint x="340" y="90" as="targetPoint" />
          </mxGeometry>
        </mxCell>
        <mxCell id="lxedp-UpiUMQ92V4cm0w-44" value="5" style="edgeLabel;resizable=0;html=1;align=center;verticalAlign=middle;fontSize=13;container=0;" parent="lxedp-UpiUMQ92V4cm0w-43" connectable="0" vertex="1">
          <mxGeometry relative="1" as="geometry" />
        </mxCell>
        <mxCell id="lxedp-UpiUMQ92V4cm0w-45" value="" style="endArrow=classic;html=1;rounded=0;exitX=1;exitY=0.5;exitDx=0;exitDy=0;entryX=0;entryY=0.5;entryDx=0;entryDy=0;" parent="lxedp-UpiUMQ92V4cm0w-57" edge="1">
          <mxGeometry relative="1" as="geometry">
            <mxPoint x="120" y="179.5" as="sourcePoint" />
            <mxPoint x="200" y="179.5" as="targetPoint" />
          </mxGeometry>
        </mxCell>
        <mxCell id="lxedp-UpiUMQ92V4cm0w-46" value="18" style="edgeLabel;resizable=0;html=1;align=center;verticalAlign=middle;fontSize=13;container=0;" parent="lxedp-UpiUMQ92V4cm0w-45" connectable="0" vertex="1">
          <mxGeometry relative="1" as="geometry" />
        </mxCell>
        <mxCell id="lxedp-UpiUMQ92V4cm0w-47" value="" style="endArrow=classic;html=1;rounded=0;exitX=0.5;exitY=0;exitDx=0;exitDy=0;entryX=0.5;entryY=1;entryDx=0;entryDy=0;" parent="lxedp-UpiUMQ92V4cm0w-57" source="lxedp-UpiUMQ92V4cm0w-32" target="lxedp-UpiUMQ92V4cm0w-30" edge="1">
          <mxGeometry relative="1" as="geometry">
            <mxPoint x="520" y="190" as="sourcePoint" />
            <mxPoint x="160" y="120" as="targetPoint" />
          </mxGeometry>
        </mxCell>
        <mxCell id="lxedp-UpiUMQ92V4cm0w-48" value="13" style="edgeLabel;resizable=0;html=1;align=center;verticalAlign=middle;fontSize=13;container=0;" parent="lxedp-UpiUMQ92V4cm0w-47" connectable="0" vertex="1">
          <mxGeometry relative="1" as="geometry" />
        </mxCell>
        <mxCell id="lxedp-UpiUMQ92V4cm0w-49" value="&lt;font style=&quot;font-size: 14px&quot;&gt;15&lt;/font&gt;" style="curved=1;endArrow=classic;html=1;rounded=0;fontSize=18;strokeColor=#b85450;strokeWidth=1;exitX=1;exitY=0;exitDx=0;exitDy=0;entryX=1;entryY=0;entryDx=0;entryDy=0;fillColor=#f8cecc;" parent="lxedp-UpiUMQ92V4cm0w-57" source="lxedp-UpiUMQ92V4cm0w-28" target="lxedp-UpiUMQ92V4cm0w-30" edge="1">
          <mxGeometry width="50" height="50" relative="1" as="geometry">
            <mxPoint x="340" y="40" as="sourcePoint" />
            <mxPoint x="390" y="-10" as="targetPoint" />
            <Array as="points">
              <mxPoint x="320" y="70" />
              <mxPoint x="300" y="50" />
              <mxPoint x="280" y="20" />
            </Array>
          </mxGeometry>
        </mxCell>
        <mxCell id="lxedp-UpiUMQ92V4cm0w-52" value="" style="curved=1;endArrow=classic;html=1;rounded=0;fontSize=18;strokeColor=#b85450;strokeWidth=1;exitX=0.5;exitY=0;exitDx=0;exitDy=0;entryX=0.5;entryY=0;entryDx=0;entryDy=0;fillColor=#f8cecc;" parent="lxedp-UpiUMQ92V4cm0w-57" source="lxedp-UpiUMQ92V4cm0w-30" target="lxedp-UpiUMQ92V4cm0w-29" edge="1">
          <mxGeometry width="50" height="50" relative="1" as="geometry">
            <mxPoint x="340" y="40" as="sourcePoint" />
            <mxPoint x="390" y="-10" as="targetPoint" />
            <Array as="points">
              <mxPoint x="170" />
              <mxPoint x="150" />
            </Array>
          </mxGeometry>
        </mxCell>
        <mxCell id="lxedp-UpiUMQ92V4cm0w-54" value="15" style="edgeLabel;html=1;align=center;verticalAlign=middle;resizable=0;points=[];fontSize=14;container=0;" parent="lxedp-UpiUMQ92V4cm0w-52" vertex="1" connectable="0">
          <mxGeometry x="0.0313" y="4" relative="1" as="geometry">
            <mxPoint as="offset" />
          </mxGeometry>
        </mxCell>
        <mxCell id="lxedp-UpiUMQ92V4cm0w-58" value="" style="group" parent="1" vertex="1" connectable="0">
          <mxGeometry x="70" y="880" width="320" height="200" as="geometry" />
        </mxCell>
        <mxCell id="lxedp-UpiUMQ92V4cm0w-59" value="" style="curved=1;endArrow=classic;html=1;rounded=0;fontSize=18;strokeColor=#b85450;strokeWidth=1;exitX=0;exitY=0;exitDx=0;exitDy=0;fillColor=#f8cecc;" parent="lxedp-UpiUMQ92V4cm0w-58" source="lxedp-UpiUMQ92V4cm0w-63" edge="1">
          <mxGeometry width="50" height="50" relative="1" as="geometry">
            <mxPoint x="340" y="40" as="sourcePoint" />
            <mxPoint x="10" y="100" as="targetPoint" />
            <Array as="points">
              <mxPoint x="40" y="26" />
            </Array>
          </mxGeometry>
        </mxCell>
        <mxCell id="lxedp-UpiUMQ92V4cm0w-60" value="15" style="edgeLabel;html=1;align=center;verticalAlign=middle;resizable=0;points=[];fontSize=14;container=0;" parent="lxedp-UpiUMQ92V4cm0w-59" vertex="1" connectable="0">
          <mxGeometry x="0.0894" y="8" relative="1" as="geometry">
            <mxPoint as="offset" />
          </mxGeometry>
        </mxCell>
        <mxCell id="lxedp-UpiUMQ92V4cm0w-61" value="&lt;font style=&quot;font-size: 18px&quot;&gt;s&lt;/font&gt;" style="ellipse;whiteSpace=wrap;html=1;aspect=fixed;container=0;" parent="lxedp-UpiUMQ92V4cm0w-58" vertex="1">
          <mxGeometry y="100" width="40" height="40" as="geometry" />
        </mxCell>
        <mxCell id="lxedp-UpiUMQ92V4cm0w-62" value="&lt;font style=&quot;font-size: 18px&quot;&gt;t&lt;/font&gt;" style="ellipse;whiteSpace=wrap;html=1;aspect=fixed;container=0;" parent="lxedp-UpiUMQ92V4cm0w-58" vertex="1">
          <mxGeometry x="280" y="100" width="40" height="40" as="geometry" />
        </mxCell>
        <mxCell id="lxedp-UpiUMQ92V4cm0w-63" value="&lt;font style=&quot;font-size: 18px&quot;&gt;1&lt;/font&gt;" style="ellipse;whiteSpace=wrap;html=1;aspect=fixed;container=0;" parent="lxedp-UpiUMQ92V4cm0w-58" vertex="1">
          <mxGeometry x="80" y="20" width="40" height="40" as="geometry" />
        </mxCell>
        <mxCell id="lxedp-UpiUMQ92V4cm0w-64" value="&lt;font style=&quot;font-size: 18px&quot;&gt;2&lt;/font&gt;" style="ellipse;whiteSpace=wrap;html=1;aspect=fixed;container=0;" parent="lxedp-UpiUMQ92V4cm0w-58" vertex="1">
          <mxGeometry x="200" y="20" width="40" height="40" as="geometry" />
        </mxCell>
        <mxCell id="lxedp-UpiUMQ92V4cm0w-65" value="&lt;font style=&quot;font-size: 18px&quot;&gt;3&lt;/font&gt;" style="ellipse;whiteSpace=wrap;html=1;aspect=fixed;container=0;" parent="lxedp-UpiUMQ92V4cm0w-58" vertex="1">
          <mxGeometry x="80" y="160" width="40" height="40" as="geometry" />
        </mxCell>
        <mxCell id="lxedp-UpiUMQ92V4cm0w-66" value="&lt;font style=&quot;font-size: 17px&quot;&gt;4&lt;/font&gt;" style="ellipse;whiteSpace=wrap;html=1;aspect=fixed;container=0;" parent="lxedp-UpiUMQ92V4cm0w-58" vertex="1">
          <mxGeometry x="200" y="160" width="40" height="40" as="geometry" />
        </mxCell>
        <mxCell id="lxedp-UpiUMQ92V4cm0w-67" value="" style="endArrow=classic;html=1;rounded=0;exitX=0.75;exitY=-0.025;exitDx=0;exitDy=0;exitPerimeter=0;" parent="lxedp-UpiUMQ92V4cm0w-58" source="lxedp-UpiUMQ92V4cm0w-61" target="lxedp-UpiUMQ92V4cm0w-63" edge="1">
          <mxGeometry relative="1" as="geometry">
            <mxPoint x="240" y="90" as="sourcePoint" />
            <mxPoint x="340" y="90" as="targetPoint" />
          </mxGeometry>
        </mxCell>
        <mxCell id="lxedp-UpiUMQ92V4cm0w-68" value="&lt;font style=&quot;font-size: 13px&quot;&gt;7&lt;/font&gt;" style="edgeLabel;resizable=0;html=1;align=center;verticalAlign=middle;container=0;" parent="lxedp-UpiUMQ92V4cm0w-67" connectable="0" vertex="1">
          <mxGeometry relative="1" as="geometry" />
        </mxCell>
        <mxCell id="lxedp-UpiUMQ92V4cm0w-69" value="" style="endArrow=classic;html=1;rounded=0;exitX=1;exitY=1;exitDx=0;exitDy=0;entryX=0;entryY=0;entryDx=0;entryDy=0;fillColor=#d5e8d4;strokeColor=#82b366;" parent="lxedp-UpiUMQ92V4cm0w-58" source="lxedp-UpiUMQ92V4cm0w-61" target="lxedp-UpiUMQ92V4cm0w-65" edge="1">
          <mxGeometry relative="1" as="geometry">
            <mxPoint x="40" y="109" as="sourcePoint" />
            <mxPoint x="94.70744273836931" y="62.889441120517404" as="targetPoint" />
          </mxGeometry>
        </mxCell>
        <mxCell id="lxedp-UpiUMQ92V4cm0w-70" value="4" style="edgeLabel;resizable=0;html=1;align=center;verticalAlign=middle;fontSize=14;container=0;" parent="lxedp-UpiUMQ92V4cm0w-69" connectable="0" vertex="1">
          <mxGeometry relative="1" as="geometry" />
        </mxCell>
        <mxCell id="lxedp-UpiUMQ92V4cm0w-71" value="" style="endArrow=classic;html=1;rounded=0;exitX=0.5;exitY=1;exitDx=0;exitDy=0;entryX=0.5;entryY=0;entryDx=0;entryDy=0;" parent="lxedp-UpiUMQ92V4cm0w-58" source="lxedp-UpiUMQ92V4cm0w-63" target="lxedp-UpiUMQ92V4cm0w-65" edge="1">
          <mxGeometry relative="1" as="geometry">
            <mxPoint x="240" y="90" as="sourcePoint" />
            <mxPoint x="140" y="110" as="targetPoint" />
          </mxGeometry>
        </mxCell>
        <mxCell id="lxedp-UpiUMQ92V4cm0w-72" value="7" style="edgeLabel;resizable=0;html=1;align=center;verticalAlign=middle;fontSize=13;container=0;" parent="lxedp-UpiUMQ92V4cm0w-71" connectable="0" vertex="1">
          <mxGeometry relative="1" as="geometry" />
        </mxCell>
        <mxCell id="lxedp-UpiUMQ92V4cm0w-73" value="" style="endArrow=classic;html=1;rounded=0;exitX=1;exitY=0;exitDx=0;exitDy=0;entryX=0;entryY=1;entryDx=0;entryDy=0;fillColor=#d5e8d4;strokeColor=#82b366;" parent="lxedp-UpiUMQ92V4cm0w-58" source="lxedp-UpiUMQ92V4cm0w-66" target="lxedp-UpiUMQ92V4cm0w-62" edge="1">
          <mxGeometry relative="1" as="geometry">
            <mxPoint x="240" y="90" as="sourcePoint" />
            <mxPoint x="340" y="90" as="targetPoint" />
          </mxGeometry>
        </mxCell>
        <mxCell id="lxedp-UpiUMQ92V4cm0w-74" value="20" style="edgeLabel;resizable=0;html=1;align=center;verticalAlign=middle;fontSize=13;container=0;" parent="lxedp-UpiUMQ92V4cm0w-73" connectable="0" vertex="1">
          <mxGeometry relative="1" as="geometry" />
        </mxCell>
        <mxCell id="lxedp-UpiUMQ92V4cm0w-75" value="" style="endArrow=classic;html=1;rounded=0;exitX=1;exitY=1;exitDx=0;exitDy=0;entryX=0;entryY=0;entryDx=0;entryDy=0;" parent="lxedp-UpiUMQ92V4cm0w-58" source="lxedp-UpiUMQ92V4cm0w-64" target="lxedp-UpiUMQ92V4cm0w-62" edge="1">
          <mxGeometry relative="1" as="geometry">
            <mxPoint x="240" y="90" as="sourcePoint" />
            <mxPoint x="340" y="90" as="targetPoint" />
          </mxGeometry>
        </mxCell>
        <mxCell id="lxedp-UpiUMQ92V4cm0w-76" value="0" style="edgeLabel;resizable=0;html=1;align=center;verticalAlign=middle;fontSize=13;container=0;" parent="lxedp-UpiUMQ92V4cm0w-75" connectable="0" vertex="1">
          <mxGeometry relative="1" as="geometry" />
        </mxCell>
        <mxCell id="lxedp-UpiUMQ92V4cm0w-77" value="" style="endArrow=classic;html=1;rounded=0;exitX=1;exitY=0.5;exitDx=0;exitDy=0;entryX=0;entryY=0.5;entryDx=0;entryDy=0;" parent="lxedp-UpiUMQ92V4cm0w-58" source="lxedp-UpiUMQ92V4cm0w-63" target="lxedp-UpiUMQ92V4cm0w-64" edge="1">
          <mxGeometry relative="1" as="geometry">
            <mxPoint x="240" y="90" as="sourcePoint" />
            <mxPoint x="340" y="90" as="targetPoint" />
          </mxGeometry>
        </mxCell>
        <mxCell id="lxedp-UpiUMQ92V4cm0w-78" value="5" style="edgeLabel;resizable=0;html=1;align=center;verticalAlign=middle;fontSize=13;container=0;" parent="lxedp-UpiUMQ92V4cm0w-77" connectable="0" vertex="1">
          <mxGeometry relative="1" as="geometry" />
        </mxCell>
        <mxCell id="lxedp-UpiUMQ92V4cm0w-79" value="" style="endArrow=classic;html=1;rounded=0;exitX=1;exitY=0.5;exitDx=0;exitDy=0;entryX=0;entryY=0.5;entryDx=0;entryDy=0;fillColor=#d5e8d4;strokeColor=#82b366;" parent="lxedp-UpiUMQ92V4cm0w-58" edge="1">
          <mxGeometry relative="1" as="geometry">
            <mxPoint x="120" y="179.5" as="sourcePoint" />
            <mxPoint x="200" y="179.5" as="targetPoint" />
          </mxGeometry>
        </mxCell>
        <mxCell id="lxedp-UpiUMQ92V4cm0w-80" value="18" style="edgeLabel;resizable=0;html=1;align=center;verticalAlign=middle;fontSize=13;container=0;" parent="lxedp-UpiUMQ92V4cm0w-79" connectable="0" vertex="1">
          <mxGeometry relative="1" as="geometry" />
        </mxCell>
        <mxCell id="lxedp-UpiUMQ92V4cm0w-81" value="" style="endArrow=classic;html=1;rounded=0;exitX=0.5;exitY=0;exitDx=0;exitDy=0;entryX=0.5;entryY=1;entryDx=0;entryDy=0;" parent="lxedp-UpiUMQ92V4cm0w-58" source="lxedp-UpiUMQ92V4cm0w-66" target="lxedp-UpiUMQ92V4cm0w-64" edge="1">
          <mxGeometry relative="1" as="geometry">
            <mxPoint x="520" y="190" as="sourcePoint" />
            <mxPoint x="150" y="130" as="targetPoint" />
          </mxGeometry>
        </mxCell>
        <mxCell id="lxedp-UpiUMQ92V4cm0w-82" value="13" style="edgeLabel;resizable=0;html=1;align=center;verticalAlign=middle;fontSize=13;container=0;" parent="lxedp-UpiUMQ92V4cm0w-81" connectable="0" vertex="1">
          <mxGeometry relative="1" as="geometry" />
        </mxCell>
        <mxCell id="lxedp-UpiUMQ92V4cm0w-83" value="&lt;font style=&quot;font-size: 14px&quot;&gt;15&lt;/font&gt;" style="curved=1;endArrow=classic;html=1;rounded=0;fontSize=18;strokeColor=#b85450;strokeWidth=1;exitX=1;exitY=0;exitDx=0;exitDy=0;entryX=1;entryY=0;entryDx=0;entryDy=0;fillColor=#f8cecc;" parent="lxedp-UpiUMQ92V4cm0w-58" source="lxedp-UpiUMQ92V4cm0w-62" target="lxedp-UpiUMQ92V4cm0w-64" edge="1">
          <mxGeometry width="50" height="50" relative="1" as="geometry">
            <mxPoint x="340" y="40" as="sourcePoint" />
            <mxPoint x="390" y="-10" as="targetPoint" />
            <Array as="points">
              <mxPoint x="320" y="70" />
              <mxPoint x="300" y="50" />
              <mxPoint x="280" y="20" />
            </Array>
          </mxGeometry>
        </mxCell>
        <mxCell id="lxedp-UpiUMQ92V4cm0w-84" value="" style="curved=1;endArrow=classic;html=1;rounded=0;fontSize=18;strokeColor=#b85450;strokeWidth=1;exitX=0.5;exitY=0;exitDx=0;exitDy=0;entryX=0.5;entryY=0;entryDx=0;entryDy=0;fillColor=#f8cecc;" parent="lxedp-UpiUMQ92V4cm0w-58" source="lxedp-UpiUMQ92V4cm0w-64" target="lxedp-UpiUMQ92V4cm0w-63" edge="1">
          <mxGeometry width="50" height="50" relative="1" as="geometry">
            <mxPoint x="340" y="40" as="sourcePoint" />
            <mxPoint x="390" y="-10" as="targetPoint" />
            <Array as="points">
              <mxPoint x="170" />
              <mxPoint x="150" />
            </Array>
          </mxGeometry>
        </mxCell>
        <mxCell id="lxedp-UpiUMQ92V4cm0w-85" value="15" style="edgeLabel;html=1;align=center;verticalAlign=middle;resizable=0;points=[];fontSize=14;container=0;" parent="lxedp-UpiUMQ92V4cm0w-84" vertex="1" connectable="0">
          <mxGeometry x="0.0313" y="4" relative="1" as="geometry">
            <mxPoint as="offset" />
          </mxGeometry>
        </mxCell>
        <mxCell id="lxedp-UpiUMQ92V4cm0w-87" value="" style="group" parent="1" vertex="1" connectable="0">
          <mxGeometry x="460" y="890" width="320" height="200" as="geometry" />
        </mxCell>
        <mxCell id="lxedp-UpiUMQ92V4cm0w-88" value="" style="curved=1;endArrow=classic;html=1;rounded=0;fontSize=18;strokeColor=#b85450;strokeWidth=1;exitX=0;exitY=0;exitDx=0;exitDy=0;fillColor=#f8cecc;" parent="lxedp-UpiUMQ92V4cm0w-87" source="lxedp-UpiUMQ92V4cm0w-92" edge="1">
          <mxGeometry width="50" height="50" relative="1" as="geometry">
            <mxPoint x="340" y="40" as="sourcePoint" />
            <mxPoint x="10" y="100" as="targetPoint" />
            <Array as="points">
              <mxPoint x="40" y="26" />
            </Array>
          </mxGeometry>
        </mxCell>
        <mxCell id="lxedp-UpiUMQ92V4cm0w-89" value="15" style="edgeLabel;html=1;align=center;verticalAlign=middle;resizable=0;points=[];fontSize=14;container=0;" parent="lxedp-UpiUMQ92V4cm0w-88" vertex="1" connectable="0">
          <mxGeometry x="0.0894" y="8" relative="1" as="geometry">
            <mxPoint as="offset" />
          </mxGeometry>
        </mxCell>
        <mxCell id="lxedp-UpiUMQ92V4cm0w-90" value="&lt;font style=&quot;font-size: 18px&quot;&gt;s&lt;/font&gt;" style="ellipse;whiteSpace=wrap;html=1;aspect=fixed;container=0;" parent="lxedp-UpiUMQ92V4cm0w-87" vertex="1">
          <mxGeometry y="100" width="40" height="40" as="geometry" />
        </mxCell>
        <mxCell id="lxedp-UpiUMQ92V4cm0w-91" value="&lt;font style=&quot;font-size: 18px&quot;&gt;t&lt;/font&gt;" style="ellipse;whiteSpace=wrap;html=1;aspect=fixed;container=0;" parent="lxedp-UpiUMQ92V4cm0w-87" vertex="1">
          <mxGeometry x="280" y="100" width="40" height="40" as="geometry" />
        </mxCell>
        <mxCell id="lxedp-UpiUMQ92V4cm0w-92" value="&lt;font style=&quot;font-size: 18px&quot;&gt;1&lt;/font&gt;" style="ellipse;whiteSpace=wrap;html=1;aspect=fixed;container=0;" parent="lxedp-UpiUMQ92V4cm0w-87" vertex="1">
          <mxGeometry x="80" y="20" width="40" height="40" as="geometry" />
        </mxCell>
        <mxCell id="lxedp-UpiUMQ92V4cm0w-93" value="&lt;font style=&quot;font-size: 18px&quot;&gt;2&lt;/font&gt;" style="ellipse;whiteSpace=wrap;html=1;aspect=fixed;container=0;" parent="lxedp-UpiUMQ92V4cm0w-87" vertex="1">
          <mxGeometry x="200" y="20" width="40" height="40" as="geometry" />
        </mxCell>
        <mxCell id="lxedp-UpiUMQ92V4cm0w-94" value="&lt;font style=&quot;font-size: 18px&quot;&gt;3&lt;/font&gt;" style="ellipse;whiteSpace=wrap;html=1;aspect=fixed;container=0;" parent="lxedp-UpiUMQ92V4cm0w-87" vertex="1">
          <mxGeometry x="80" y="160" width="40" height="40" as="geometry" />
        </mxCell>
        <mxCell id="lxedp-UpiUMQ92V4cm0w-95" value="&lt;font style=&quot;font-size: 17px&quot;&gt;4&lt;/font&gt;" style="ellipse;whiteSpace=wrap;html=1;aspect=fixed;container=0;" parent="lxedp-UpiUMQ92V4cm0w-87" vertex="1">
          <mxGeometry x="200" y="160" width="40" height="40" as="geometry" />
        </mxCell>
        <mxCell id="lxedp-UpiUMQ92V4cm0w-96" value="" style="endArrow=classic;html=1;rounded=0;exitX=0.75;exitY=-0.025;exitDx=0;exitDy=0;exitPerimeter=0;" parent="lxedp-UpiUMQ92V4cm0w-87" source="lxedp-UpiUMQ92V4cm0w-90" target="lxedp-UpiUMQ92V4cm0w-92" edge="1">
          <mxGeometry relative="1" as="geometry">
            <mxPoint x="240" y="90" as="sourcePoint" />
            <mxPoint x="340" y="90" as="targetPoint" />
          </mxGeometry>
        </mxCell>
        <mxCell id="lxedp-UpiUMQ92V4cm0w-97" value="&lt;font style=&quot;font-size: 13px&quot;&gt;7&lt;/font&gt;" style="edgeLabel;resizable=0;html=1;align=center;verticalAlign=middle;container=0;" parent="lxedp-UpiUMQ92V4cm0w-96" connectable="0" vertex="1">
          <mxGeometry relative="1" as="geometry" />
        </mxCell>
        <mxCell id="lxedp-UpiUMQ92V4cm0w-98" value="0" style="endArrow=classic;html=1;rounded=0;exitX=1;exitY=1;exitDx=0;exitDy=0;entryX=0;entryY=0;entryDx=0;entryDy=0;fillColor=#d5e8d4;strokeColor=#82b366;" parent="lxedp-UpiUMQ92V4cm0w-87" source="lxedp-UpiUMQ92V4cm0w-90" target="lxedp-UpiUMQ92V4cm0w-94" edge="1">
          <mxGeometry relative="1" as="geometry">
            <mxPoint x="40" y="109" as="sourcePoint" />
            <mxPoint x="94.70744273836931" y="62.889441120517404" as="targetPoint" />
          </mxGeometry>
        </mxCell>
        <mxCell id="lxedp-UpiUMQ92V4cm0w-99" value="4" style="edgeLabel;resizable=0;html=1;align=center;verticalAlign=middle;fontSize=14;container=0;" parent="lxedp-UpiUMQ92V4cm0w-98" connectable="0" vertex="1">
          <mxGeometry relative="1" as="geometry" />
        </mxCell>
        <mxCell id="lxedp-UpiUMQ92V4cm0w-100" value="" style="endArrow=classic;html=1;rounded=0;entryX=0.5;entryY=0;entryDx=0;entryDy=0;" parent="lxedp-UpiUMQ92V4cm0w-87" target="lxedp-UpiUMQ92V4cm0w-94" edge="1">
          <mxGeometry relative="1" as="geometry">
            <mxPoint x="100" y="60" as="sourcePoint" />
            <mxPoint x="150" y="120" as="targetPoint" />
          </mxGeometry>
        </mxCell>
        <mxCell id="lxedp-UpiUMQ92V4cm0w-101" value="7" style="edgeLabel;resizable=0;html=1;align=center;verticalAlign=middle;fontSize=13;container=0;" parent="lxedp-UpiUMQ92V4cm0w-100" connectable="0" vertex="1">
          <mxGeometry relative="1" as="geometry" />
        </mxCell>
        <mxCell id="lxedp-UpiUMQ92V4cm0w-102" value="" style="endArrow=classic;html=1;rounded=0;exitX=1;exitY=0;exitDx=0;exitDy=0;entryX=0;entryY=1;entryDx=0;entryDy=0;fillColor=#d5e8d4;strokeColor=#82b366;" parent="lxedp-UpiUMQ92V4cm0w-87" source="lxedp-UpiUMQ92V4cm0w-95" target="lxedp-UpiUMQ92V4cm0w-91" edge="1">
          <mxGeometry relative="1" as="geometry">
            <mxPoint x="240" y="90" as="sourcePoint" />
            <mxPoint x="340" y="90" as="targetPoint" />
          </mxGeometry>
        </mxCell>
        <mxCell id="lxedp-UpiUMQ92V4cm0w-103" value="16" style="edgeLabel;resizable=0;html=1;align=center;verticalAlign=middle;fontSize=13;container=0;" parent="lxedp-UpiUMQ92V4cm0w-102" connectable="0" vertex="1">
          <mxGeometry relative="1" as="geometry" />
        </mxCell>
        <mxCell id="lxedp-UpiUMQ92V4cm0w-104" value="" style="endArrow=classic;html=1;rounded=0;exitX=1;exitY=1;exitDx=0;exitDy=0;entryX=0;entryY=0;entryDx=0;entryDy=0;" parent="lxedp-UpiUMQ92V4cm0w-87" source="lxedp-UpiUMQ92V4cm0w-93" target="lxedp-UpiUMQ92V4cm0w-91" edge="1">
          <mxGeometry relative="1" as="geometry">
            <mxPoint x="240" y="90" as="sourcePoint" />
            <mxPoint x="340" y="90" as="targetPoint" />
          </mxGeometry>
        </mxCell>
        <mxCell id="lxedp-UpiUMQ92V4cm0w-105" value="0" style="edgeLabel;resizable=0;html=1;align=center;verticalAlign=middle;fontSize=13;container=0;" parent="lxedp-UpiUMQ92V4cm0w-104" connectable="0" vertex="1">
          <mxGeometry relative="1" as="geometry" />
        </mxCell>
        <mxCell id="lxedp-UpiUMQ92V4cm0w-106" value="" style="endArrow=classic;html=1;rounded=0;exitX=1;exitY=0.5;exitDx=0;exitDy=0;entryX=0;entryY=0.5;entryDx=0;entryDy=0;" parent="lxedp-UpiUMQ92V4cm0w-87" source="lxedp-UpiUMQ92V4cm0w-92" target="lxedp-UpiUMQ92V4cm0w-93" edge="1">
          <mxGeometry relative="1" as="geometry">
            <mxPoint x="240" y="90" as="sourcePoint" />
            <mxPoint x="340" y="90" as="targetPoint" />
          </mxGeometry>
        </mxCell>
        <mxCell id="lxedp-UpiUMQ92V4cm0w-107" value="5" style="edgeLabel;resizable=0;html=1;align=center;verticalAlign=middle;fontSize=13;container=0;" parent="lxedp-UpiUMQ92V4cm0w-106" connectable="0" vertex="1">
          <mxGeometry relative="1" as="geometry" />
        </mxCell>
        <mxCell id="lxedp-UpiUMQ92V4cm0w-108" value="" style="endArrow=classic;html=1;rounded=0;exitX=1;exitY=0.5;exitDx=0;exitDy=0;entryX=0;entryY=0.5;entryDx=0;entryDy=0;fillColor=#d5e8d4;strokeColor=#82b366;" parent="lxedp-UpiUMQ92V4cm0w-87" edge="1">
          <mxGeometry relative="1" as="geometry">
            <mxPoint x="120" y="179.5" as="sourcePoint" />
            <mxPoint x="200" y="179.5" as="targetPoint" />
          </mxGeometry>
        </mxCell>
        <mxCell id="lxedp-UpiUMQ92V4cm0w-109" value="14" style="edgeLabel;resizable=0;html=1;align=center;verticalAlign=middle;fontSize=13;container=0;" parent="lxedp-UpiUMQ92V4cm0w-108" connectable="0" vertex="1">
          <mxGeometry relative="1" as="geometry" />
        </mxCell>
        <mxCell id="lxedp-UpiUMQ92V4cm0w-110" value="" style="endArrow=classic;html=1;rounded=0;entryX=0.5;entryY=1;entryDx=0;entryDy=0;" parent="lxedp-UpiUMQ92V4cm0w-87" target="lxedp-UpiUMQ92V4cm0w-93" edge="1">
          <mxGeometry relative="1" as="geometry">
            <mxPoint x="220" y="160" as="sourcePoint" />
            <mxPoint x="140" y="100" as="targetPoint" />
          </mxGeometry>
        </mxCell>
        <mxCell id="lxedp-UpiUMQ92V4cm0w-111" value="13" style="edgeLabel;resizable=0;html=1;align=center;verticalAlign=middle;fontSize=13;container=0;" parent="lxedp-UpiUMQ92V4cm0w-110" connectable="0" vertex="1">
          <mxGeometry relative="1" as="geometry" />
        </mxCell>
        <mxCell id="lxedp-UpiUMQ92V4cm0w-112" value="&lt;font style=&quot;font-size: 14px&quot;&gt;15&lt;/font&gt;" style="curved=1;endArrow=classic;html=1;rounded=0;fontSize=18;strokeColor=#b85450;strokeWidth=1;exitX=1;exitY=0;exitDx=0;exitDy=0;entryX=1;entryY=0;entryDx=0;entryDy=0;fillColor=#f8cecc;" parent="lxedp-UpiUMQ92V4cm0w-87" source="lxedp-UpiUMQ92V4cm0w-91" target="lxedp-UpiUMQ92V4cm0w-93" edge="1">
          <mxGeometry width="50" height="50" relative="1" as="geometry">
            <mxPoint x="340" y="40" as="sourcePoint" />
            <mxPoint x="390" y="-10" as="targetPoint" />
            <Array as="points">
              <mxPoint x="320" y="70" />
              <mxPoint x="300" y="50" />
              <mxPoint x="280" y="20" />
            </Array>
          </mxGeometry>
        </mxCell>
        <mxCell id="lxedp-UpiUMQ92V4cm0w-113" value="" style="curved=1;endArrow=classic;html=1;rounded=0;fontSize=18;strokeColor=#b85450;strokeWidth=1;exitX=0.5;exitY=0;exitDx=0;exitDy=0;entryX=0.5;entryY=0;entryDx=0;entryDy=0;fillColor=#f8cecc;" parent="lxedp-UpiUMQ92V4cm0w-87" source="lxedp-UpiUMQ92V4cm0w-93" target="lxedp-UpiUMQ92V4cm0w-92" edge="1">
          <mxGeometry width="50" height="50" relative="1" as="geometry">
            <mxPoint x="340" y="40" as="sourcePoint" />
            <mxPoint x="390" y="-10" as="targetPoint" />
            <Array as="points">
              <mxPoint x="170" />
              <mxPoint x="150" />
            </Array>
          </mxGeometry>
        </mxCell>
        <mxCell id="lxedp-UpiUMQ92V4cm0w-114" value="15" style="edgeLabel;html=1;align=center;verticalAlign=middle;resizable=0;points=[];fontSize=14;container=0;" parent="lxedp-UpiUMQ92V4cm0w-113" vertex="1" connectable="0">
          <mxGeometry x="0.0313" y="4" relative="1" as="geometry">
            <mxPoint as="offset" />
          </mxGeometry>
        </mxCell>
        <mxCell id="lxedp-UpiUMQ92V4cm0w-115" value="" style="group" parent="1" vertex="1" connectable="0">
          <mxGeometry x="460" y="370" width="320" height="180" as="geometry" />
        </mxCell>
        <mxCell id="lxedp-UpiUMQ92V4cm0w-116" value="&lt;font style=&quot;font-size: 18px&quot;&gt;s&lt;/font&gt;" style="ellipse;whiteSpace=wrap;html=1;aspect=fixed;" parent="lxedp-UpiUMQ92V4cm0w-115" vertex="1">
          <mxGeometry y="80" width="40" height="40" as="geometry" />
        </mxCell>
        <mxCell id="lxedp-UpiUMQ92V4cm0w-117" value="&lt;font style=&quot;font-size: 18px&quot;&gt;t&lt;/font&gt;" style="ellipse;whiteSpace=wrap;html=1;aspect=fixed;" parent="lxedp-UpiUMQ92V4cm0w-115" vertex="1">
          <mxGeometry x="280" y="80" width="40" height="40" as="geometry" />
        </mxCell>
        <mxCell id="lxedp-UpiUMQ92V4cm0w-118" value="&lt;font style=&quot;font-size: 18px&quot;&gt;1&lt;/font&gt;" style="ellipse;whiteSpace=wrap;html=1;aspect=fixed;" parent="lxedp-UpiUMQ92V4cm0w-115" vertex="1">
          <mxGeometry x="80" width="40" height="40" as="geometry" />
        </mxCell>
        <mxCell id="lxedp-UpiUMQ92V4cm0w-119" value="&lt;font style=&quot;font-size: 18px&quot;&gt;2&lt;/font&gt;" style="ellipse;whiteSpace=wrap;html=1;aspect=fixed;" parent="lxedp-UpiUMQ92V4cm0w-115" vertex="1">
          <mxGeometry x="200" width="40" height="40" as="geometry" />
        </mxCell>
        <mxCell id="lxedp-UpiUMQ92V4cm0w-120" value="&lt;font style=&quot;font-size: 18px&quot;&gt;3&lt;/font&gt;" style="ellipse;whiteSpace=wrap;html=1;aspect=fixed;" parent="lxedp-UpiUMQ92V4cm0w-115" vertex="1">
          <mxGeometry x="80" y="140" width="40" height="40" as="geometry" />
        </mxCell>
        <mxCell id="lxedp-UpiUMQ92V4cm0w-121" value="&lt;font style=&quot;font-size: 17px&quot;&gt;4&lt;/font&gt;" style="ellipse;whiteSpace=wrap;html=1;aspect=fixed;" parent="lxedp-UpiUMQ92V4cm0w-115" vertex="1">
          <mxGeometry x="200" y="140" width="40" height="40" as="geometry" />
        </mxCell>
        <mxCell id="lxedp-UpiUMQ92V4cm0w-122" value="" style="endArrow=classic;html=1;rounded=0;exitX=0.75;exitY=-0.025;exitDx=0;exitDy=0;exitPerimeter=0;fillColor=#d5e8d4;strokeColor=#82b366;" parent="lxedp-UpiUMQ92V4cm0w-115" source="lxedp-UpiUMQ92V4cm0w-116" target="lxedp-UpiUMQ92V4cm0w-118" edge="1">
          <mxGeometry relative="1" as="geometry">
            <mxPoint x="240" y="70" as="sourcePoint" />
            <mxPoint x="340" y="70" as="targetPoint" />
          </mxGeometry>
        </mxCell>
        <mxCell id="lxedp-UpiUMQ92V4cm0w-123" value="&lt;font style=&quot;font-size: 13px&quot;&gt;7&lt;/font&gt;" style="edgeLabel;resizable=0;html=1;align=center;verticalAlign=middle;" parent="lxedp-UpiUMQ92V4cm0w-122" connectable="0" vertex="1">
          <mxGeometry relative="1" as="geometry" />
        </mxCell>
        <mxCell id="lxedp-UpiUMQ92V4cm0w-124" value="" style="endArrow=classic;html=1;rounded=0;exitX=1;exitY=1;exitDx=0;exitDy=0;entryX=0;entryY=0;entryDx=0;entryDy=0;" parent="lxedp-UpiUMQ92V4cm0w-115" source="lxedp-UpiUMQ92V4cm0w-116" target="lxedp-UpiUMQ92V4cm0w-120" edge="1">
          <mxGeometry relative="1" as="geometry">
            <mxPoint x="40" y="89" as="sourcePoint" />
            <mxPoint x="94.70744273836931" y="42.889441120517404" as="targetPoint" />
          </mxGeometry>
        </mxCell>
        <mxCell id="lxedp-UpiUMQ92V4cm0w-125" value="4" style="edgeLabel;resizable=0;html=1;align=center;verticalAlign=middle;fontSize=14;" parent="lxedp-UpiUMQ92V4cm0w-124" connectable="0" vertex="1">
          <mxGeometry relative="1" as="geometry" />
        </mxCell>
        <mxCell id="lxedp-UpiUMQ92V4cm0w-126" value="" style="endArrow=classic;html=1;rounded=0;entryX=0.5;entryY=0;entryDx=0;entryDy=0;" parent="lxedp-UpiUMQ92V4cm0w-115" target="lxedp-UpiUMQ92V4cm0w-120" edge="1">
          <mxGeometry relative="1" as="geometry">
            <mxPoint x="100" y="40" as="sourcePoint" />
            <mxPoint x="150" y="90" as="targetPoint" />
          </mxGeometry>
        </mxCell>
        <mxCell id="lxedp-UpiUMQ92V4cm0w-127" value="7" style="edgeLabel;resizable=0;html=1;align=center;verticalAlign=middle;fontSize=13;" parent="lxedp-UpiUMQ92V4cm0w-126" connectable="0" vertex="1">
          <mxGeometry relative="1" as="geometry" />
        </mxCell>
        <mxCell id="lxedp-UpiUMQ92V4cm0w-128" value="" style="endArrow=classic;html=1;rounded=0;exitX=1;exitY=0;exitDx=0;exitDy=0;entryX=0;entryY=1;entryDx=0;entryDy=0;" parent="lxedp-UpiUMQ92V4cm0w-115" source="lxedp-UpiUMQ92V4cm0w-121" target="lxedp-UpiUMQ92V4cm0w-117" edge="1">
          <mxGeometry relative="1" as="geometry">
            <mxPoint x="240" y="70" as="sourcePoint" />
            <mxPoint x="340" y="70" as="targetPoint" />
          </mxGeometry>
        </mxCell>
        <mxCell id="lxedp-UpiUMQ92V4cm0w-129" value="20" style="edgeLabel;resizable=0;html=1;align=center;verticalAlign=middle;fontSize=13;" parent="lxedp-UpiUMQ92V4cm0w-128" connectable="0" vertex="1">
          <mxGeometry relative="1" as="geometry" />
        </mxCell>
        <mxCell id="lxedp-UpiUMQ92V4cm0w-130" value="" style="endArrow=classic;html=1;rounded=0;exitX=1;exitY=1;exitDx=0;exitDy=0;entryX=0;entryY=0;entryDx=0;entryDy=0;fillColor=#d5e8d4;strokeColor=#82b366;" parent="lxedp-UpiUMQ92V4cm0w-115" source="lxedp-UpiUMQ92V4cm0w-119" target="lxedp-UpiUMQ92V4cm0w-117" edge="1">
          <mxGeometry relative="1" as="geometry">
            <mxPoint x="240" y="70" as="sourcePoint" />
            <mxPoint x="340" y="70" as="targetPoint" />
          </mxGeometry>
        </mxCell>
        <mxCell id="lxedp-UpiUMQ92V4cm0w-131" value="0" style="edgeLabel;resizable=0;html=1;align=center;verticalAlign=middle;fontSize=13;" parent="lxedp-UpiUMQ92V4cm0w-130" connectable="0" vertex="1">
          <mxGeometry relative="1" as="geometry" />
        </mxCell>
        <mxCell id="lxedp-UpiUMQ92V4cm0w-132" value="" style="endArrow=classic;html=1;rounded=0;exitX=1;exitY=0.5;exitDx=0;exitDy=0;entryX=0;entryY=0.5;entryDx=0;entryDy=0;fillColor=#d5e8d4;strokeColor=#82b366;" parent="lxedp-UpiUMQ92V4cm0w-115" source="lxedp-UpiUMQ92V4cm0w-118" target="lxedp-UpiUMQ92V4cm0w-119" edge="1">
          <mxGeometry relative="1" as="geometry">
            <mxPoint x="240" y="70" as="sourcePoint" />
            <mxPoint x="340" y="70" as="targetPoint" />
          </mxGeometry>
        </mxCell>
        <mxCell id="lxedp-UpiUMQ92V4cm0w-133" value="5" style="edgeLabel;resizable=0;html=1;align=center;verticalAlign=middle;fontSize=13;" parent="lxedp-UpiUMQ92V4cm0w-132" connectable="0" vertex="1">
          <mxGeometry relative="1" as="geometry" />
        </mxCell>
        <mxCell id="lxedp-UpiUMQ92V4cm0w-134" value="" style="endArrow=classic;html=1;rounded=0;exitX=1;exitY=0.5;exitDx=0;exitDy=0;entryX=0;entryY=0.5;entryDx=0;entryDy=0;" parent="lxedp-UpiUMQ92V4cm0w-115" edge="1">
          <mxGeometry relative="1" as="geometry">
            <mxPoint x="120" y="159.5" as="sourcePoint" />
            <mxPoint x="200" y="159.5" as="targetPoint" />
          </mxGeometry>
        </mxCell>
        <mxCell id="lxedp-UpiUMQ92V4cm0w-135" value="18" style="edgeLabel;resizable=0;html=1;align=center;verticalAlign=middle;fontSize=13;" parent="lxedp-UpiUMQ92V4cm0w-134" connectable="0" vertex="1">
          <mxGeometry relative="1" as="geometry" />
        </mxCell>
        <mxCell id="lxedp-UpiUMQ92V4cm0w-136" value="" style="endArrow=classic;html=1;rounded=0;exitX=0.5;exitY=0;exitDx=0;exitDy=0;" parent="lxedp-UpiUMQ92V4cm0w-115" source="lxedp-UpiUMQ92V4cm0w-121" target="lxedp-UpiUMQ92V4cm0w-119" edge="1">
          <mxGeometry relative="1" as="geometry">
            <mxPoint x="520" y="170" as="sourcePoint" />
            <mxPoint x="130" y="90" as="targetPoint" />
          </mxGeometry>
        </mxCell>
        <mxCell id="lxedp-UpiUMQ92V4cm0w-137" value="13" style="edgeLabel;resizable=0;html=1;align=center;verticalAlign=middle;fontSize=13;" parent="lxedp-UpiUMQ92V4cm0w-136" connectable="0" vertex="1">
          <mxGeometry relative="1" as="geometry" />
        </mxCell>
        <mxCell id="lxedp-UpiUMQ92V4cm0w-167" value="" style="line;strokeWidth=2;html=1;fontSize=14;" parent="1" vertex="1">
          <mxGeometry x="50" y="850" width="740" height="10" as="geometry" />
        </mxCell>
        <mxCell id="lxedp-UpiUMQ92V4cm0w-168" value="" style="line;strokeWidth=2;html=1;fontSize=14;" parent="1" vertex="1">
          <mxGeometry x="30" y="1510" width="740" height="10" as="geometry" />
        </mxCell>
        <mxCell id="lxedp-UpiUMQ92V4cm0w-180" value="so we have total flow as 15+4" style="text;html=1;align=center;verticalAlign=middle;resizable=0;points=[];autosize=1;strokeColor=none;fillColor=none;fontSize=14;" parent="1" vertex="1">
          <mxGeometry x="180" y="1460" width="200" height="20" as="geometry" />
        </mxCell>
        <mxCell id="lxedp-UpiUMQ92V4cm0w-181" value="so we have total flow as 15" style="text;html=1;align=center;verticalAlign=middle;resizable=0;points=[];autosize=1;strokeColor=none;fillColor=none;fontSize=14;" parent="1" vertex="1">
          <mxGeometry x="240" y="830" width="180" height="20" as="geometry" />
        </mxCell>
        <mxCell id="lxedp-UpiUMQ92V4cm0w-182" value="" style="group" parent="1" vertex="1" connectable="0">
          <mxGeometry x="70" y="1160" width="330" height="240" as="geometry" />
        </mxCell>
        <mxCell id="lxedp-UpiUMQ92V4cm0w-139" value="4" style="group" parent="lxedp-UpiUMQ92V4cm0w-182" vertex="1" connectable="0">
          <mxGeometry width="330" height="220" as="geometry" />
        </mxCell>
        <mxCell id="lxedp-UpiUMQ92V4cm0w-140" value="" style="curved=1;endArrow=classic;html=1;rounded=0;fontSize=18;strokeColor=#b85450;strokeWidth=1;exitX=0;exitY=0;exitDx=0;exitDy=0;fillColor=#f8cecc;" parent="lxedp-UpiUMQ92V4cm0w-139" source="lxedp-UpiUMQ92V4cm0w-144" edge="1">
          <mxGeometry width="50" height="50" relative="1" as="geometry">
            <mxPoint x="350.625" y="44" as="sourcePoint" />
            <mxPoint x="10.3125" y="110.00000000000001" as="targetPoint" />
            <Array as="points">
              <mxPoint x="41.25" y="28.6" />
            </Array>
          </mxGeometry>
        </mxCell>
        <mxCell id="lxedp-UpiUMQ92V4cm0w-141" value="15" style="edgeLabel;html=1;align=center;verticalAlign=middle;resizable=0;points=[];fontSize=14;container=0;" parent="lxedp-UpiUMQ92V4cm0w-140" vertex="1" connectable="0">
          <mxGeometry x="0.0894" y="8" relative="1" as="geometry">
            <mxPoint as="offset" />
          </mxGeometry>
        </mxCell>
        <mxCell id="lxedp-UpiUMQ92V4cm0w-142" value="&lt;font style=&quot;font-size: 18px&quot;&gt;s&lt;/font&gt;" style="ellipse;whiteSpace=wrap;html=1;aspect=fixed;container=0;" parent="lxedp-UpiUMQ92V4cm0w-139" vertex="1">
          <mxGeometry y="110.00000000000001" width="41.25" height="41.25" as="geometry" />
        </mxCell>
        <mxCell id="lxedp-UpiUMQ92V4cm0w-143" value="&lt;font style=&quot;font-size: 18px&quot;&gt;t&lt;/font&gt;" style="ellipse;whiteSpace=wrap;html=1;aspect=fixed;container=0;" parent="lxedp-UpiUMQ92V4cm0w-139" vertex="1">
          <mxGeometry x="288.75" y="110.00000000000001" width="41.25" height="41.25" as="geometry" />
        </mxCell>
        <mxCell id="lxedp-UpiUMQ92V4cm0w-144" value="&lt;font style=&quot;font-size: 18px&quot;&gt;1&lt;/font&gt;" style="ellipse;whiteSpace=wrap;html=1;aspect=fixed;container=0;" parent="lxedp-UpiUMQ92V4cm0w-139" vertex="1">
          <mxGeometry x="82.5" y="22" width="41.25" height="41.25" as="geometry" />
        </mxCell>
        <mxCell id="lxedp-UpiUMQ92V4cm0w-145" value="&lt;font style=&quot;font-size: 18px&quot;&gt;2&lt;/font&gt;" style="ellipse;whiteSpace=wrap;html=1;aspect=fixed;container=0;" parent="lxedp-UpiUMQ92V4cm0w-139" vertex="1">
          <mxGeometry x="206.25" y="22" width="41.25" height="41.25" as="geometry" />
        </mxCell>
        <mxCell id="lxedp-UpiUMQ92V4cm0w-146" value="&lt;font style=&quot;font-size: 18px&quot;&gt;3&lt;/font&gt;" style="ellipse;whiteSpace=wrap;html=1;aspect=fixed;container=0;" parent="lxedp-UpiUMQ92V4cm0w-139" vertex="1">
          <mxGeometry x="82.5" y="176" width="41.25" height="41.25" as="geometry" />
        </mxCell>
        <mxCell id="lxedp-UpiUMQ92V4cm0w-147" value="&lt;font style=&quot;font-size: 17px&quot;&gt;4&lt;/font&gt;" style="ellipse;whiteSpace=wrap;html=1;aspect=fixed;container=0;" parent="lxedp-UpiUMQ92V4cm0w-139" vertex="1">
          <mxGeometry x="206.25" y="176" width="41.25" height="41.25" as="geometry" />
        </mxCell>
        <mxCell id="lxedp-UpiUMQ92V4cm0w-148" value="" style="endArrow=classic;html=1;rounded=0;exitX=0.75;exitY=-0.025;exitDx=0;exitDy=0;exitPerimeter=0;" parent="lxedp-UpiUMQ92V4cm0w-139" source="lxedp-UpiUMQ92V4cm0w-142" target="lxedp-UpiUMQ92V4cm0w-144" edge="1">
          <mxGeometry relative="1" as="geometry">
            <mxPoint x="247.5" y="99.00000000000001" as="sourcePoint" />
            <mxPoint x="350.625" y="99.00000000000001" as="targetPoint" />
          </mxGeometry>
        </mxCell>
        <mxCell id="lxedp-UpiUMQ92V4cm0w-149" value="&lt;font style=&quot;font-size: 13px&quot;&gt;7&lt;/font&gt;" style="edgeLabel;resizable=0;html=1;align=center;verticalAlign=middle;container=0;" parent="lxedp-UpiUMQ92V4cm0w-148" connectable="0" vertex="1">
          <mxGeometry relative="1" as="geometry" />
        </mxCell>
        <mxCell id="lxedp-UpiUMQ92V4cm0w-150" value="0" style="endArrow=classic;html=1;rounded=0;exitX=1;exitY=1;exitDx=0;exitDy=0;entryX=0;entryY=0;entryDx=0;entryDy=0;fillColor=#d5e8d4;strokeColor=#82b366;" parent="lxedp-UpiUMQ92V4cm0w-139" source="lxedp-UpiUMQ92V4cm0w-142" target="lxedp-UpiUMQ92V4cm0w-146" edge="1">
          <mxGeometry relative="1" as="geometry">
            <mxPoint x="41.25" y="119.9" as="sourcePoint" />
            <mxPoint x="97.66705032394336" y="69.17838523256916" as="targetPoint" />
          </mxGeometry>
        </mxCell>
        <mxCell id="lxedp-UpiUMQ92V4cm0w-151" value="4" style="edgeLabel;resizable=0;html=1;align=center;verticalAlign=middle;fontSize=14;container=0;" parent="lxedp-UpiUMQ92V4cm0w-150" connectable="0" vertex="1">
          <mxGeometry relative="1" as="geometry" />
        </mxCell>
        <mxCell id="lxedp-UpiUMQ92V4cm0w-154" value="" style="endArrow=classic;html=1;rounded=0;exitX=1;exitY=0;exitDx=0;exitDy=0;entryX=0;entryY=1;entryDx=0;entryDy=0;fillColor=#d5e8d4;strokeColor=#82b366;" parent="lxedp-UpiUMQ92V4cm0w-139" source="lxedp-UpiUMQ92V4cm0w-147" target="lxedp-UpiUMQ92V4cm0w-143" edge="1">
          <mxGeometry relative="1" as="geometry">
            <mxPoint x="247.5" y="99.00000000000001" as="sourcePoint" />
            <mxPoint x="350.625" y="99.00000000000001" as="targetPoint" />
          </mxGeometry>
        </mxCell>
        <mxCell id="lxedp-UpiUMQ92V4cm0w-155" value="16" style="edgeLabel;resizable=0;html=1;align=center;verticalAlign=middle;fontSize=13;container=0;" parent="lxedp-UpiUMQ92V4cm0w-154" connectable="0" vertex="1">
          <mxGeometry relative="1" as="geometry" />
        </mxCell>
        <mxCell id="lxedp-UpiUMQ92V4cm0w-156" value="" style="endArrow=classic;html=1;rounded=0;exitX=1;exitY=1;exitDx=0;exitDy=0;entryX=0;entryY=0;entryDx=0;entryDy=0;" parent="lxedp-UpiUMQ92V4cm0w-139" source="lxedp-UpiUMQ92V4cm0w-145" target="lxedp-UpiUMQ92V4cm0w-143" edge="1">
          <mxGeometry relative="1" as="geometry">
            <mxPoint x="247.5" y="99.00000000000001" as="sourcePoint" />
            <mxPoint x="350.625" y="99.00000000000001" as="targetPoint" />
          </mxGeometry>
        </mxCell>
        <mxCell id="lxedp-UpiUMQ92V4cm0w-157" value="0" style="edgeLabel;resizable=0;html=1;align=center;verticalAlign=middle;fontSize=13;container=0;" parent="lxedp-UpiUMQ92V4cm0w-156" connectable="0" vertex="1">
          <mxGeometry relative="1" as="geometry" />
        </mxCell>
        <mxCell id="lxedp-UpiUMQ92V4cm0w-158" value="" style="endArrow=classic;html=1;rounded=0;exitX=1;exitY=0.5;exitDx=0;exitDy=0;entryX=0;entryY=0.5;entryDx=0;entryDy=0;" parent="lxedp-UpiUMQ92V4cm0w-139" source="lxedp-UpiUMQ92V4cm0w-144" target="lxedp-UpiUMQ92V4cm0w-145" edge="1">
          <mxGeometry relative="1" as="geometry">
            <mxPoint x="247.5" y="99.00000000000001" as="sourcePoint" />
            <mxPoint x="350.625" y="99.00000000000001" as="targetPoint" />
          </mxGeometry>
        </mxCell>
        <mxCell id="lxedp-UpiUMQ92V4cm0w-159" value="5" style="edgeLabel;resizable=0;html=1;align=center;verticalAlign=middle;fontSize=13;container=0;" parent="lxedp-UpiUMQ92V4cm0w-158" connectable="0" vertex="1">
          <mxGeometry relative="1" as="geometry" />
        </mxCell>
        <mxCell id="lxedp-UpiUMQ92V4cm0w-160" value="" style="endArrow=classic;html=1;rounded=0;exitX=1;exitY=0.5;exitDx=0;exitDy=0;entryX=0;entryY=0.5;entryDx=0;entryDy=0;fillColor=#d5e8d4;strokeColor=#82b366;" parent="lxedp-UpiUMQ92V4cm0w-139" edge="1">
          <mxGeometry relative="1" as="geometry">
            <mxPoint x="123.75" y="197.45000000000002" as="sourcePoint" />
            <mxPoint x="206.25" y="197.45000000000002" as="targetPoint" />
          </mxGeometry>
        </mxCell>
        <mxCell id="lxedp-UpiUMQ92V4cm0w-161" value="14" style="edgeLabel;resizable=0;html=1;align=center;verticalAlign=middle;fontSize=13;container=0;" parent="lxedp-UpiUMQ92V4cm0w-160" connectable="0" vertex="1">
          <mxGeometry relative="1" as="geometry" />
        </mxCell>
        <mxCell id="lxedp-UpiUMQ92V4cm0w-162" value="" style="endArrow=classic;html=1;rounded=0;exitX=0.5;exitY=0;exitDx=0;exitDy=0;entryX=0.5;entryY=1;entryDx=0;entryDy=0;" parent="lxedp-UpiUMQ92V4cm0w-139" source="lxedp-UpiUMQ92V4cm0w-147" target="lxedp-UpiUMQ92V4cm0w-145" edge="1">
          <mxGeometry relative="1" as="geometry">
            <mxPoint x="536.25" y="209.00000000000003" as="sourcePoint" />
            <mxPoint x="180" y="110" as="targetPoint" />
          </mxGeometry>
        </mxCell>
        <mxCell id="lxedp-UpiUMQ92V4cm0w-163" value="13" style="edgeLabel;resizable=0;html=1;align=center;verticalAlign=middle;fontSize=13;container=0;" parent="lxedp-UpiUMQ92V4cm0w-162" connectable="0" vertex="1">
          <mxGeometry relative="1" as="geometry" />
        </mxCell>
        <mxCell id="lxedp-UpiUMQ92V4cm0w-164" value="&lt;font style=&quot;font-size: 14px&quot;&gt;15&lt;/font&gt;" style="curved=1;endArrow=classic;html=1;rounded=0;fontSize=18;strokeColor=#b85450;strokeWidth=1;exitX=1;exitY=0;exitDx=0;exitDy=0;entryX=1;entryY=0;entryDx=0;entryDy=0;fillColor=#f8cecc;" parent="lxedp-UpiUMQ92V4cm0w-139" source="lxedp-UpiUMQ92V4cm0w-143" target="lxedp-UpiUMQ92V4cm0w-145" edge="1">
          <mxGeometry width="50" height="50" relative="1" as="geometry">
            <mxPoint x="350.625" y="44" as="sourcePoint" />
            <mxPoint x="402.1875" y="-11" as="targetPoint" />
            <Array as="points">
              <mxPoint x="330" y="77" />
              <mxPoint x="309.375" y="55.00000000000001" />
              <mxPoint x="288.75" y="22" />
            </Array>
          </mxGeometry>
        </mxCell>
        <mxCell id="lxedp-UpiUMQ92V4cm0w-165" value="" style="curved=1;endArrow=classic;html=1;rounded=0;fontSize=18;strokeColor=#b85450;strokeWidth=1;exitX=0.5;exitY=0;exitDx=0;exitDy=0;entryX=0.5;entryY=0;entryDx=0;entryDy=0;fillColor=#f8cecc;" parent="lxedp-UpiUMQ92V4cm0w-139" source="lxedp-UpiUMQ92V4cm0w-145" target="lxedp-UpiUMQ92V4cm0w-144" edge="1">
          <mxGeometry width="50" height="50" relative="1" as="geometry">
            <mxPoint x="350.625" y="44" as="sourcePoint" />
            <mxPoint x="402.1875" y="-11" as="targetPoint" />
            <Array as="points">
              <mxPoint x="175.3125" />
              <mxPoint x="154.6875" />
            </Array>
          </mxGeometry>
        </mxCell>
        <mxCell id="lxedp-UpiUMQ92V4cm0w-166" value="15" style="edgeLabel;html=1;align=center;verticalAlign=middle;resizable=0;points=[];fontSize=14;container=0;" parent="lxedp-UpiUMQ92V4cm0w-165" vertex="1" connectable="0">
          <mxGeometry x="0.0313" y="4" relative="1" as="geometry">
            <mxPoint as="offset" />
          </mxGeometry>
        </mxCell>
        <mxCell id="lxedp-UpiUMQ92V4cm0w-171" value="4" style="curved=1;endArrow=classic;html=1;rounded=0;fontSize=14;strokeColor=#b85450;strokeWidth=1;entryX=0;entryY=1;entryDx=0;entryDy=0;exitX=0;exitY=1;exitDx=0;exitDy=0;fillColor=#f8cecc;" parent="lxedp-UpiUMQ92V4cm0w-139" source="lxedp-UpiUMQ92V4cm0w-146" target="lxedp-UpiUMQ92V4cm0w-142" edge="1">
          <mxGeometry width="50" height="50" relative="1" as="geometry">
            <mxPoint x="82.5" y="220.00000000000003" as="sourcePoint" />
            <mxPoint x="10.3125" y="165" as="targetPoint" />
            <Array as="points">
              <mxPoint x="20.625" y="231.00000000000003" />
              <mxPoint x="-10.3125" y="198.00000000000003" />
            </Array>
          </mxGeometry>
        </mxCell>
        <mxCell id="lxedp-UpiUMQ92V4cm0w-231" value="" style="endArrow=classic;html=1;rounded=0;fontSize=14;strokeColor=#000000;strokeWidth=1;exitX=0.5;exitY=1;exitDx=0;exitDy=0;" parent="lxedp-UpiUMQ92V4cm0w-139" edge="1">
          <mxGeometry relative="1" as="geometry">
            <mxPoint x="102.755" y="59.25" as="sourcePoint" />
            <mxPoint x="102.63" y="176" as="targetPoint" />
          </mxGeometry>
        </mxCell>
        <mxCell id="lxedp-UpiUMQ92V4cm0w-232" value="7" style="edgeLabel;resizable=0;html=1;align=center;verticalAlign=middle;fontSize=14;" parent="lxedp-UpiUMQ92V4cm0w-231" connectable="0" vertex="1">
          <mxGeometry relative="1" as="geometry" />
        </mxCell>
        <mxCell id="lxedp-UpiUMQ92V4cm0w-169" value="" style="curved=1;endArrow=classic;html=1;rounded=0;fontSize=14;strokeColor=#b85450;strokeWidth=1;exitX=1;exitY=1;exitDx=0;exitDy=0;fillColor=#f8cecc;" parent="lxedp-UpiUMQ92V4cm0w-182" source="lxedp-UpiUMQ92V4cm0w-143" edge="1">
          <mxGeometry width="50" height="50" relative="1" as="geometry">
            <mxPoint x="310" y="230" as="sourcePoint" />
            <mxPoint x="240" y="200" as="targetPoint" />
            <Array as="points">
              <mxPoint x="324" y="190" />
              <mxPoint x="300" y="210" />
            </Array>
          </mxGeometry>
        </mxCell>
        <mxCell id="lxedp-UpiUMQ92V4cm0w-172" value="4" style="edgeLabel;html=1;align=center;verticalAlign=middle;resizable=0;points=[];fontSize=14;" parent="lxedp-UpiUMQ92V4cm0w-169" vertex="1" connectable="0">
          <mxGeometry x="-0.0474" y="3" relative="1" as="geometry">
            <mxPoint y="1" as="offset" />
          </mxGeometry>
        </mxCell>
        <mxCell id="lxedp-UpiUMQ92V4cm0w-170" value="" style="curved=1;endArrow=classic;html=1;rounded=0;fontSize=14;strokeColor=#b85450;strokeWidth=1;exitX=0.25;exitY=1;exitDx=0;exitDy=0;exitPerimeter=0;fillColor=#f8cecc;" parent="lxedp-UpiUMQ92V4cm0w-182" source="lxedp-UpiUMQ92V4cm0w-147" edge="1">
          <mxGeometry width="50" height="50" relative="1" as="geometry">
            <mxPoint x="230" y="200" as="sourcePoint" />
            <mxPoint x="120" y="200" as="targetPoint" />
            <Array as="points">
              <mxPoint x="180" y="240" />
              <mxPoint x="150" y="240" />
            </Array>
          </mxGeometry>
        </mxCell>
        <mxCell id="lxedp-UpiUMQ92V4cm0w-173" value="4" style="edgeLabel;html=1;align=center;verticalAlign=middle;resizable=0;points=[];fontSize=14;" parent="lxedp-UpiUMQ92V4cm0w-170" vertex="1" connectable="0">
          <mxGeometry x="0.0188" y="2" relative="1" as="geometry">
            <mxPoint as="offset" />
          </mxGeometry>
        </mxCell>
        <mxCell id="lxedp-UpiUMQ92V4cm0w-219" value="" style="group" parent="1" vertex="1" connectable="0">
          <mxGeometry x="19.997500000000002" y="1570" width="340.3125" height="240" as="geometry" />
        </mxCell>
        <mxCell id="lxedp-UpiUMQ92V4cm0w-213" value="" style="curved=1;endArrow=classic;html=1;rounded=0;fontSize=14;strokeColor=#b85450;strokeWidth=1;exitX=1;exitY=1;exitDx=0;exitDy=0;fillColor=#f8cecc;" parent="lxedp-UpiUMQ92V4cm0w-219" source="lxedp-UpiUMQ92V4cm0w-188" edge="1">
          <mxGeometry width="50" height="50" relative="1" as="geometry">
            <mxPoint x="320.3125" y="230" as="sourcePoint" />
            <mxPoint x="250.3125" y="200" as="targetPoint" />
            <Array as="points">
              <mxPoint x="334.3125" y="190" />
              <mxPoint x="310.3125" y="210" />
            </Array>
          </mxGeometry>
        </mxCell>
        <mxCell id="lxedp-UpiUMQ92V4cm0w-214" value="4" style="edgeLabel;html=1;align=center;verticalAlign=middle;resizable=0;points=[];fontSize=14;container=0;" parent="lxedp-UpiUMQ92V4cm0w-213" vertex="1" connectable="0">
          <mxGeometry x="-0.0474" y="3" relative="1" as="geometry">
            <mxPoint y="1" as="offset" />
          </mxGeometry>
        </mxCell>
        <mxCell id="lxedp-UpiUMQ92V4cm0w-215" value="" style="curved=1;endArrow=classic;html=1;rounded=0;fontSize=14;strokeColor=#b85450;strokeWidth=1;exitX=0.25;exitY=1;exitDx=0;exitDy=0;exitPerimeter=0;fillColor=#f8cecc;" parent="lxedp-UpiUMQ92V4cm0w-219" source="lxedp-UpiUMQ92V4cm0w-192" edge="1">
          <mxGeometry width="50" height="50" relative="1" as="geometry">
            <mxPoint x="240.3125" y="200" as="sourcePoint" />
            <mxPoint x="130.3125" y="200" as="targetPoint" />
            <Array as="points">
              <mxPoint x="190.3125" y="240" />
              <mxPoint x="160.3125" y="240" />
            </Array>
          </mxGeometry>
        </mxCell>
        <mxCell id="lxedp-UpiUMQ92V4cm0w-216" value="4" style="edgeLabel;html=1;align=center;verticalAlign=middle;resizable=0;points=[];fontSize=14;container=0;" parent="lxedp-UpiUMQ92V4cm0w-215" vertex="1" connectable="0">
          <mxGeometry x="0.0188" y="2" relative="1" as="geometry">
            <mxPoint as="offset" />
          </mxGeometry>
        </mxCell>
        <mxCell id="lxedp-UpiUMQ92V4cm0w-185" value="" style="curved=1;endArrow=classic;html=1;rounded=0;fontSize=18;strokeColor=#b85450;strokeWidth=1;exitX=0;exitY=0;exitDx=0;exitDy=0;fillColor=#f8cecc;" parent="lxedp-UpiUMQ92V4cm0w-219" source="lxedp-UpiUMQ92V4cm0w-189" edge="1">
          <mxGeometry width="50" height="50" relative="1" as="geometry">
            <mxPoint x="360.9375" y="44" as="sourcePoint" />
            <mxPoint x="20.625" y="110" as="targetPoint" />
            <Array as="points">
              <mxPoint x="51.5625" y="28.59999999999991" />
            </Array>
          </mxGeometry>
        </mxCell>
        <mxCell id="lxedp-UpiUMQ92V4cm0w-186" value="15" style="edgeLabel;html=1;align=center;verticalAlign=middle;resizable=0;points=[];fontSize=14;container=0;" parent="lxedp-UpiUMQ92V4cm0w-185" vertex="1" connectable="0">
          <mxGeometry x="0.0894" y="8" relative="1" as="geometry">
            <mxPoint as="offset" />
          </mxGeometry>
        </mxCell>
        <mxCell id="lxedp-UpiUMQ92V4cm0w-187" value="&lt;font style=&quot;font-size: 18px&quot;&gt;s&lt;/font&gt;" style="ellipse;whiteSpace=wrap;html=1;aspect=fixed;container=0;" parent="lxedp-UpiUMQ92V4cm0w-219" vertex="1">
          <mxGeometry x="10.3125" y="110" width="41.25" height="41.25" as="geometry" />
        </mxCell>
        <mxCell id="lxedp-UpiUMQ92V4cm0w-188" value="&lt;font style=&quot;font-size: 18px&quot;&gt;t&lt;/font&gt;" style="ellipse;whiteSpace=wrap;html=1;aspect=fixed;container=0;" parent="lxedp-UpiUMQ92V4cm0w-219" vertex="1">
          <mxGeometry x="299.0625" y="110" width="41.25" height="41.25" as="geometry" />
        </mxCell>
        <mxCell id="lxedp-UpiUMQ92V4cm0w-189" value="&lt;font style=&quot;font-size: 18px&quot;&gt;1&lt;/font&gt;" style="ellipse;whiteSpace=wrap;html=1;aspect=fixed;container=0;" parent="lxedp-UpiUMQ92V4cm0w-219" vertex="1">
          <mxGeometry x="92.8125" y="22" width="41.25" height="41.25" as="geometry" />
        </mxCell>
        <mxCell id="lxedp-UpiUMQ92V4cm0w-190" value="&lt;font style=&quot;font-size: 18px&quot;&gt;2&lt;/font&gt;" style="ellipse;whiteSpace=wrap;html=1;aspect=fixed;container=0;" parent="lxedp-UpiUMQ92V4cm0w-219" vertex="1">
          <mxGeometry x="216.5625" y="22" width="41.25" height="41.25" as="geometry" />
        </mxCell>
        <mxCell id="lxedp-UpiUMQ92V4cm0w-191" value="&lt;font style=&quot;font-size: 18px&quot;&gt;3&lt;/font&gt;" style="ellipse;whiteSpace=wrap;html=1;aspect=fixed;container=0;" parent="lxedp-UpiUMQ92V4cm0w-219" vertex="1">
          <mxGeometry x="92.8125" y="176" width="41.25" height="41.25" as="geometry" />
        </mxCell>
        <mxCell id="lxedp-UpiUMQ92V4cm0w-192" value="&lt;font style=&quot;font-size: 17px&quot;&gt;4&lt;/font&gt;" style="ellipse;whiteSpace=wrap;html=1;aspect=fixed;container=0;" parent="lxedp-UpiUMQ92V4cm0w-219" vertex="1">
          <mxGeometry x="216.5625" y="176" width="41.25" height="41.25" as="geometry" />
        </mxCell>
        <mxCell id="lxedp-UpiUMQ92V4cm0w-193" value="" style="endArrow=classic;html=1;rounded=0;exitX=0.75;exitY=-0.025;exitDx=0;exitDy=0;exitPerimeter=0;fillColor=#d5e8d4;strokeColor=#82b366;" parent="lxedp-UpiUMQ92V4cm0w-219" source="lxedp-UpiUMQ92V4cm0w-187" target="lxedp-UpiUMQ92V4cm0w-189" edge="1">
          <mxGeometry relative="1" as="geometry">
            <mxPoint x="257.8125" y="99" as="sourcePoint" />
            <mxPoint x="360.9375" y="99" as="targetPoint" />
          </mxGeometry>
        </mxCell>
        <mxCell id="lxedp-UpiUMQ92V4cm0w-194" value="&lt;font style=&quot;font-size: 13px&quot;&gt;7&lt;/font&gt;" style="edgeLabel;resizable=0;html=1;align=center;verticalAlign=middle;container=0;" parent="lxedp-UpiUMQ92V4cm0w-193" connectable="0" vertex="1">
          <mxGeometry relative="1" as="geometry" />
        </mxCell>
        <mxCell id="lxedp-UpiUMQ92V4cm0w-195" value="0" style="endArrow=classic;html=1;rounded=0;exitX=1;exitY=1;exitDx=0;exitDy=0;entryX=0;entryY=0;entryDx=0;entryDy=0;" parent="lxedp-UpiUMQ92V4cm0w-219" source="lxedp-UpiUMQ92V4cm0w-187" target="lxedp-UpiUMQ92V4cm0w-191" edge="1">
          <mxGeometry relative="1" as="geometry">
            <mxPoint x="51.5625" y="119.90000000000009" as="sourcePoint" />
            <mxPoint x="107.97955032394336" y="69.1783852325691" as="targetPoint" />
          </mxGeometry>
        </mxCell>
        <mxCell id="lxedp-UpiUMQ92V4cm0w-196" value="4" style="edgeLabel;resizable=0;html=1;align=center;verticalAlign=middle;fontSize=14;container=0;" parent="lxedp-UpiUMQ92V4cm0w-195" connectable="0" vertex="1">
          <mxGeometry relative="1" as="geometry" />
        </mxCell>
        <mxCell id="lxedp-UpiUMQ92V4cm0w-199" value="" style="endArrow=classic;html=1;rounded=0;exitX=1;exitY=0;exitDx=0;exitDy=0;entryX=0;entryY=1;entryDx=0;entryDy=0;fillColor=#d5e8d4;strokeColor=#82b366;" parent="lxedp-UpiUMQ92V4cm0w-219" source="lxedp-UpiUMQ92V4cm0w-192" target="lxedp-UpiUMQ92V4cm0w-188" edge="1">
          <mxGeometry relative="1" as="geometry">
            <mxPoint x="257.8125" y="99" as="sourcePoint" />
            <mxPoint x="360.9375" y="99" as="targetPoint" />
          </mxGeometry>
        </mxCell>
        <mxCell id="lxedp-UpiUMQ92V4cm0w-200" value="16" style="edgeLabel;resizable=0;html=1;align=center;verticalAlign=middle;fontSize=13;container=0;" parent="lxedp-UpiUMQ92V4cm0w-199" connectable="0" vertex="1">
          <mxGeometry relative="1" as="geometry" />
        </mxCell>
        <mxCell id="lxedp-UpiUMQ92V4cm0w-201" value="" style="endArrow=classic;html=1;rounded=0;exitX=1;exitY=1;exitDx=0;exitDy=0;entryX=0;entryY=0;entryDx=0;entryDy=0;" parent="lxedp-UpiUMQ92V4cm0w-219" source="lxedp-UpiUMQ92V4cm0w-190" target="lxedp-UpiUMQ92V4cm0w-188" edge="1">
          <mxGeometry relative="1" as="geometry">
            <mxPoint x="257.8125" y="99" as="sourcePoint" />
            <mxPoint x="360.9375" y="99" as="targetPoint" />
          </mxGeometry>
        </mxCell>
        <mxCell id="lxedp-UpiUMQ92V4cm0w-202" value="0" style="edgeLabel;resizable=0;html=1;align=center;verticalAlign=middle;fontSize=13;container=0;" parent="lxedp-UpiUMQ92V4cm0w-201" connectable="0" vertex="1">
          <mxGeometry relative="1" as="geometry" />
        </mxCell>
        <mxCell id="lxedp-UpiUMQ92V4cm0w-203" value="" style="endArrow=classic;html=1;rounded=0;exitX=1;exitY=0.5;exitDx=0;exitDy=0;entryX=0;entryY=0.5;entryDx=0;entryDy=0;" parent="lxedp-UpiUMQ92V4cm0w-219" source="lxedp-UpiUMQ92V4cm0w-189" target="lxedp-UpiUMQ92V4cm0w-190" edge="1">
          <mxGeometry relative="1" as="geometry">
            <mxPoint x="257.8125" y="99" as="sourcePoint" />
            <mxPoint x="360.9375" y="99" as="targetPoint" />
          </mxGeometry>
        </mxCell>
        <mxCell id="lxedp-UpiUMQ92V4cm0w-204" value="5" style="edgeLabel;resizable=0;html=1;align=center;verticalAlign=middle;fontSize=13;container=0;" parent="lxedp-UpiUMQ92V4cm0w-203" connectable="0" vertex="1">
          <mxGeometry relative="1" as="geometry" />
        </mxCell>
        <mxCell id="lxedp-UpiUMQ92V4cm0w-205" value="" style="endArrow=classic;html=1;rounded=0;exitX=1;exitY=0.5;exitDx=0;exitDy=0;entryX=0;entryY=0.5;entryDx=0;entryDy=0;fillColor=#d5e8d4;strokeColor=#82b366;" parent="lxedp-UpiUMQ92V4cm0w-219" edge="1">
          <mxGeometry relative="1" as="geometry">
            <mxPoint x="134.0625" y="197.45000000000005" as="sourcePoint" />
            <mxPoint x="216.5625" y="197.45000000000005" as="targetPoint" />
          </mxGeometry>
        </mxCell>
        <mxCell id="lxedp-UpiUMQ92V4cm0w-206" value="14" style="edgeLabel;resizable=0;html=1;align=center;verticalAlign=middle;fontSize=13;container=0;" parent="lxedp-UpiUMQ92V4cm0w-205" connectable="0" vertex="1">
          <mxGeometry relative="1" as="geometry" />
        </mxCell>
        <mxCell id="lxedp-UpiUMQ92V4cm0w-209" value="&lt;font style=&quot;font-size: 14px&quot;&gt;15&lt;/font&gt;" style="curved=1;endArrow=classic;html=1;rounded=0;fontSize=18;strokeColor=#b85450;strokeWidth=1;exitX=1;exitY=0;exitDx=0;exitDy=0;entryX=1;entryY=0;entryDx=0;entryDy=0;fillColor=#f8cecc;" parent="lxedp-UpiUMQ92V4cm0w-219" source="lxedp-UpiUMQ92V4cm0w-188" target="lxedp-UpiUMQ92V4cm0w-190" edge="1">
          <mxGeometry width="50" height="50" relative="1" as="geometry">
            <mxPoint x="360.9375" y="44" as="sourcePoint" />
            <mxPoint x="412.5" y="-11" as="targetPoint" />
            <Array as="points">
              <mxPoint x="340.3125" y="77" />
              <mxPoint x="319.6875" y="55" />
              <mxPoint x="299.0625" y="22" />
            </Array>
          </mxGeometry>
        </mxCell>
        <mxCell id="lxedp-UpiUMQ92V4cm0w-210" value="" style="curved=1;endArrow=classic;html=1;rounded=0;fontSize=18;strokeColor=#b85450;strokeWidth=1;exitX=0.5;exitY=0;exitDx=0;exitDy=0;entryX=0.5;entryY=0;entryDx=0;entryDy=0;fillColor=#f8cecc;" parent="lxedp-UpiUMQ92V4cm0w-219" source="lxedp-UpiUMQ92V4cm0w-190" target="lxedp-UpiUMQ92V4cm0w-189" edge="1">
          <mxGeometry width="50" height="50" relative="1" as="geometry">
            <mxPoint x="360.9375" y="44" as="sourcePoint" />
            <mxPoint x="412.5" y="-11" as="targetPoint" />
            <Array as="points">
              <mxPoint x="185.625" />
              <mxPoint x="165" />
            </Array>
          </mxGeometry>
        </mxCell>
        <mxCell id="lxedp-UpiUMQ92V4cm0w-211" value="15" style="edgeLabel;html=1;align=center;verticalAlign=middle;resizable=0;points=[];fontSize=14;container=0;" parent="lxedp-UpiUMQ92V4cm0w-210" vertex="1" connectable="0">
          <mxGeometry x="0.0313" y="4" relative="1" as="geometry">
            <mxPoint as="offset" />
          </mxGeometry>
        </mxCell>
        <mxCell id="lxedp-UpiUMQ92V4cm0w-212" value="4" style="curved=1;endArrow=classic;html=1;rounded=0;fontSize=14;strokeColor=#b85450;strokeWidth=1;entryX=0;entryY=1;entryDx=0;entryDy=0;exitX=0;exitY=1;exitDx=0;exitDy=0;fillColor=#f8cecc;" parent="lxedp-UpiUMQ92V4cm0w-219" source="lxedp-UpiUMQ92V4cm0w-191" target="lxedp-UpiUMQ92V4cm0w-187" edge="1">
          <mxGeometry width="50" height="50" relative="1" as="geometry">
            <mxPoint x="92.8125" y="220" as="sourcePoint" />
            <mxPoint x="20.625" y="165" as="targetPoint" />
            <Array as="points">
              <mxPoint x="30.9375" y="231" />
              <mxPoint y="198" />
            </Array>
          </mxGeometry>
        </mxCell>
        <mxCell id="lxedp-UpiUMQ92V4cm0w-223" value="" style="endArrow=classic;html=1;rounded=0;fontSize=14;strokeColor=#000000;strokeWidth=1;exitX=0.5;exitY=0;exitDx=0;exitDy=0;entryX=0.5;entryY=1;entryDx=0;entryDy=0;" parent="lxedp-UpiUMQ92V4cm0w-219" source="lxedp-UpiUMQ92V4cm0w-192" target="lxedp-UpiUMQ92V4cm0w-190" edge="1">
          <mxGeometry relative="1" as="geometry">
            <mxPoint x="300.3125" y="170" as="sourcePoint" />
            <mxPoint x="400.3125" y="170" as="targetPoint" />
          </mxGeometry>
        </mxCell>
        <mxCell id="lxedp-UpiUMQ92V4cm0w-224" value="13" style="edgeLabel;resizable=0;html=1;align=center;verticalAlign=middle;fontSize=14;" parent="lxedp-UpiUMQ92V4cm0w-223" connectable="0" vertex="1">
          <mxGeometry relative="1" as="geometry" />
        </mxCell>
        <mxCell id="lxedp-UpiUMQ92V4cm0w-221" value="" style="endArrow=classic;html=1;rounded=0;fontSize=14;strokeColor=#82b366;strokeWidth=1;exitX=0.5;exitY=1;exitDx=0;exitDy=0;fillColor=#d5e8d4;entryX=0.5;entryY=0;entryDx=0;entryDy=0;" parent="lxedp-UpiUMQ92V4cm0w-219" source="lxedp-UpiUMQ92V4cm0w-189" edge="1" target="lxedp-UpiUMQ92V4cm0w-191">
          <mxGeometry relative="1" as="geometry">
            <mxPoint x="340.0025" y="160" as="sourcePoint" />
            <mxPoint x="153.0025" y="170" as="targetPoint" />
          </mxGeometry>
        </mxCell>
        <mxCell id="lxedp-UpiUMQ92V4cm0w-222" value="7" style="edgeLabel;resizable=0;html=1;align=center;verticalAlign=middle;fontSize=14;" parent="lxedp-UpiUMQ92V4cm0w-221" connectable="0" vertex="1">
          <mxGeometry relative="1" as="geometry" />
        </mxCell>
        <mxCell id="7rcCzId-d-z-wgNafooQ-1" value="" style="group" vertex="1" connectable="0" parent="1">
          <mxGeometry x="429.6875" y="1570" width="340.3125" height="240" as="geometry" />
        </mxCell>
        <mxCell id="7rcCzId-d-z-wgNafooQ-2" value="" style="curved=1;endArrow=classic;html=1;rounded=0;fontSize=14;strokeColor=#b85450;strokeWidth=1;exitX=1;exitY=1;exitDx=0;exitDy=0;fillColor=#f8cecc;" edge="1" parent="7rcCzId-d-z-wgNafooQ-1" source="7rcCzId-d-z-wgNafooQ-9">
          <mxGeometry width="50" height="50" relative="1" as="geometry">
            <mxPoint x="320.3125" y="230" as="sourcePoint" />
            <mxPoint x="250.3125" y="200" as="targetPoint" />
            <Array as="points">
              <mxPoint x="334.3125" y="190" />
              <mxPoint x="310.3125" y="210" />
            </Array>
          </mxGeometry>
        </mxCell>
        <mxCell id="7rcCzId-d-z-wgNafooQ-3" value="4" style="edgeLabel;html=1;align=center;verticalAlign=middle;resizable=0;points=[];fontSize=14;container=0;" vertex="1" connectable="0" parent="7rcCzId-d-z-wgNafooQ-2">
          <mxGeometry x="-0.0474" y="3" relative="1" as="geometry">
            <mxPoint y="1" as="offset" />
          </mxGeometry>
        </mxCell>
        <mxCell id="7rcCzId-d-z-wgNafooQ-4" value="" style="curved=1;endArrow=classic;html=1;rounded=0;fontSize=14;strokeColor=#b85450;strokeWidth=1;exitX=0.25;exitY=1;exitDx=0;exitDy=0;exitPerimeter=0;fillColor=#f8cecc;" edge="1" parent="7rcCzId-d-z-wgNafooQ-1" source="7rcCzId-d-z-wgNafooQ-13">
          <mxGeometry width="50" height="50" relative="1" as="geometry">
            <mxPoint x="240.3125" y="200" as="sourcePoint" />
            <mxPoint x="130.3125" y="200" as="targetPoint" />
            <Array as="points">
              <mxPoint x="190.3125" y="240" />
              <mxPoint x="160.3125" y="240" />
            </Array>
          </mxGeometry>
        </mxCell>
        <mxCell id="7rcCzId-d-z-wgNafooQ-5" value="4" style="edgeLabel;html=1;align=center;verticalAlign=middle;resizable=0;points=[];fontSize=14;container=0;" vertex="1" connectable="0" parent="7rcCzId-d-z-wgNafooQ-4">
          <mxGeometry x="0.0188" y="2" relative="1" as="geometry">
            <mxPoint as="offset" />
          </mxGeometry>
        </mxCell>
        <mxCell id="7rcCzId-d-z-wgNafooQ-6" value="" style="curved=1;endArrow=classic;html=1;rounded=0;fontSize=18;strokeColor=#b85450;strokeWidth=1;exitX=0;exitY=0;exitDx=0;exitDy=0;fillColor=#f8cecc;" edge="1" parent="7rcCzId-d-z-wgNafooQ-1" source="7rcCzId-d-z-wgNafooQ-10">
          <mxGeometry width="50" height="50" relative="1" as="geometry">
            <mxPoint x="360.9375" y="44" as="sourcePoint" />
            <mxPoint x="20.625" y="110" as="targetPoint" />
            <Array as="points">
              <mxPoint x="51.5625" y="28.59999999999991" />
            </Array>
          </mxGeometry>
        </mxCell>
        <mxCell id="7rcCzId-d-z-wgNafooQ-7" value="15" style="edgeLabel;html=1;align=center;verticalAlign=middle;resizable=0;points=[];fontSize=14;container=0;" vertex="1" connectable="0" parent="7rcCzId-d-z-wgNafooQ-6">
          <mxGeometry x="0.0894" y="8" relative="1" as="geometry">
            <mxPoint as="offset" />
          </mxGeometry>
        </mxCell>
        <mxCell id="7rcCzId-d-z-wgNafooQ-8" value="&lt;font style=&quot;font-size: 18px&quot;&gt;s&lt;/font&gt;" style="ellipse;whiteSpace=wrap;html=1;aspect=fixed;container=0;" vertex="1" parent="7rcCzId-d-z-wgNafooQ-1">
          <mxGeometry x="10.3125" y="110" width="41.25" height="41.25" as="geometry" />
        </mxCell>
        <mxCell id="7rcCzId-d-z-wgNafooQ-9" value="&lt;font style=&quot;font-size: 18px&quot;&gt;t&lt;/font&gt;" style="ellipse;whiteSpace=wrap;html=1;aspect=fixed;container=0;" vertex="1" parent="7rcCzId-d-z-wgNafooQ-1">
          <mxGeometry x="299.0625" y="110" width="41.25" height="41.25" as="geometry" />
        </mxCell>
        <mxCell id="7rcCzId-d-z-wgNafooQ-10" value="&lt;font style=&quot;font-size: 18px&quot;&gt;1&lt;/font&gt;" style="ellipse;whiteSpace=wrap;html=1;aspect=fixed;container=0;" vertex="1" parent="7rcCzId-d-z-wgNafooQ-1">
          <mxGeometry x="92.8125" y="22" width="41.25" height="41.25" as="geometry" />
        </mxCell>
        <mxCell id="7rcCzId-d-z-wgNafooQ-11" value="&lt;font style=&quot;font-size: 18px&quot;&gt;2&lt;/font&gt;" style="ellipse;whiteSpace=wrap;html=1;aspect=fixed;container=0;" vertex="1" parent="7rcCzId-d-z-wgNafooQ-1">
          <mxGeometry x="216.5625" y="22" width="41.25" height="41.25" as="geometry" />
        </mxCell>
        <mxCell id="7rcCzId-d-z-wgNafooQ-12" value="&lt;font style=&quot;font-size: 18px&quot;&gt;3&lt;/font&gt;" style="ellipse;whiteSpace=wrap;html=1;aspect=fixed;container=0;" vertex="1" parent="7rcCzId-d-z-wgNafooQ-1">
          <mxGeometry x="92.8125" y="176" width="41.25" height="41.25" as="geometry" />
        </mxCell>
        <mxCell id="7rcCzId-d-z-wgNafooQ-13" value="&lt;font style=&quot;font-size: 17px&quot;&gt;4&lt;/font&gt;" style="ellipse;whiteSpace=wrap;html=1;aspect=fixed;container=0;" vertex="1" parent="7rcCzId-d-z-wgNafooQ-1">
          <mxGeometry x="216.5625" y="176" width="41.25" height="41.25" as="geometry" />
        </mxCell>
        <mxCell id="7rcCzId-d-z-wgNafooQ-14" value="" style="endArrow=classic;html=1;rounded=0;exitX=0.75;exitY=-0.025;exitDx=0;exitDy=0;exitPerimeter=0;fillColor=#d5e8d4;strokeColor=#82b366;" edge="1" parent="7rcCzId-d-z-wgNafooQ-1" source="7rcCzId-d-z-wgNafooQ-8" target="7rcCzId-d-z-wgNafooQ-10">
          <mxGeometry relative="1" as="geometry">
            <mxPoint x="257.8125" y="99" as="sourcePoint" />
            <mxPoint x="360.9375" y="99" as="targetPoint" />
          </mxGeometry>
        </mxCell>
        <mxCell id="7rcCzId-d-z-wgNafooQ-15" value="&lt;font style=&quot;font-size: 13px&quot;&gt;0&lt;/font&gt;" style="edgeLabel;resizable=0;html=1;align=center;verticalAlign=middle;container=0;" connectable="0" vertex="1" parent="7rcCzId-d-z-wgNafooQ-14">
          <mxGeometry relative="1" as="geometry" />
        </mxCell>
        <mxCell id="7rcCzId-d-z-wgNafooQ-16" value="0" style="endArrow=classic;html=1;rounded=0;exitX=1;exitY=1;exitDx=0;exitDy=0;entryX=0;entryY=0;entryDx=0;entryDy=0;" edge="1" parent="7rcCzId-d-z-wgNafooQ-1" source="7rcCzId-d-z-wgNafooQ-8" target="7rcCzId-d-z-wgNafooQ-12">
          <mxGeometry relative="1" as="geometry">
            <mxPoint x="51.5625" y="119.90000000000009" as="sourcePoint" />
            <mxPoint x="107.97955032394336" y="69.1783852325691" as="targetPoint" />
          </mxGeometry>
        </mxCell>
        <mxCell id="7rcCzId-d-z-wgNafooQ-17" value="4" style="edgeLabel;resizable=0;html=1;align=center;verticalAlign=middle;fontSize=14;container=0;" connectable="0" vertex="1" parent="7rcCzId-d-z-wgNafooQ-16">
          <mxGeometry relative="1" as="geometry" />
        </mxCell>
        <mxCell id="7rcCzId-d-z-wgNafooQ-18" value="" style="endArrow=classic;html=1;rounded=0;exitX=1;exitY=0;exitDx=0;exitDy=0;entryX=0;entryY=1;entryDx=0;entryDy=0;fillColor=#d5e8d4;strokeColor=#82b366;" edge="1" parent="7rcCzId-d-z-wgNafooQ-1" source="7rcCzId-d-z-wgNafooQ-13" target="7rcCzId-d-z-wgNafooQ-9">
          <mxGeometry relative="1" as="geometry">
            <mxPoint x="257.8125" y="99" as="sourcePoint" />
            <mxPoint x="360.9375" y="99" as="targetPoint" />
          </mxGeometry>
        </mxCell>
        <mxCell id="7rcCzId-d-z-wgNafooQ-19" value="8" style="edgeLabel;resizable=0;html=1;align=center;verticalAlign=middle;fontSize=13;container=0;" connectable="0" vertex="1" parent="7rcCzId-d-z-wgNafooQ-18">
          <mxGeometry relative="1" as="geometry" />
        </mxCell>
        <mxCell id="7rcCzId-d-z-wgNafooQ-20" value="" style="endArrow=classic;html=1;rounded=0;exitX=1;exitY=1;exitDx=0;exitDy=0;entryX=0;entryY=0;entryDx=0;entryDy=0;" edge="1" parent="7rcCzId-d-z-wgNafooQ-1" source="7rcCzId-d-z-wgNafooQ-11" target="7rcCzId-d-z-wgNafooQ-9">
          <mxGeometry relative="1" as="geometry">
            <mxPoint x="257.8125" y="99" as="sourcePoint" />
            <mxPoint x="360.9375" y="99" as="targetPoint" />
          </mxGeometry>
        </mxCell>
        <mxCell id="7rcCzId-d-z-wgNafooQ-21" value="0" style="edgeLabel;resizable=0;html=1;align=center;verticalAlign=middle;fontSize=13;container=0;" connectable="0" vertex="1" parent="7rcCzId-d-z-wgNafooQ-20">
          <mxGeometry relative="1" as="geometry" />
        </mxCell>
        <mxCell id="7rcCzId-d-z-wgNafooQ-22" value="" style="endArrow=classic;html=1;rounded=0;exitX=1;exitY=0.5;exitDx=0;exitDy=0;entryX=0;entryY=0.5;entryDx=0;entryDy=0;" edge="1" parent="7rcCzId-d-z-wgNafooQ-1" source="7rcCzId-d-z-wgNafooQ-10" target="7rcCzId-d-z-wgNafooQ-11">
          <mxGeometry relative="1" as="geometry">
            <mxPoint x="257.8125" y="99" as="sourcePoint" />
            <mxPoint x="360.9375" y="99" as="targetPoint" />
          </mxGeometry>
        </mxCell>
        <mxCell id="7rcCzId-d-z-wgNafooQ-23" value="5" style="edgeLabel;resizable=0;html=1;align=center;verticalAlign=middle;fontSize=13;container=0;" connectable="0" vertex="1" parent="7rcCzId-d-z-wgNafooQ-22">
          <mxGeometry relative="1" as="geometry" />
        </mxCell>
        <mxCell id="7rcCzId-d-z-wgNafooQ-24" value="" style="endArrow=classic;html=1;rounded=0;exitX=1;exitY=0.5;exitDx=0;exitDy=0;entryX=0;entryY=0.5;entryDx=0;entryDy=0;fillColor=#d5e8d4;strokeColor=#82b366;" edge="1" parent="7rcCzId-d-z-wgNafooQ-1">
          <mxGeometry relative="1" as="geometry">
            <mxPoint x="134.0625" y="197.45000000000005" as="sourcePoint" />
            <mxPoint x="216.5625" y="197.45000000000005" as="targetPoint" />
          </mxGeometry>
        </mxCell>
        <mxCell id="7rcCzId-d-z-wgNafooQ-25" value="7" style="edgeLabel;resizable=0;html=1;align=center;verticalAlign=middle;fontSize=13;container=0;" connectable="0" vertex="1" parent="7rcCzId-d-z-wgNafooQ-24">
          <mxGeometry relative="1" as="geometry" />
        </mxCell>
        <mxCell id="7rcCzId-d-z-wgNafooQ-26" value="&lt;font style=&quot;font-size: 14px&quot;&gt;15&lt;/font&gt;" style="curved=1;endArrow=classic;html=1;rounded=0;fontSize=18;strokeColor=#b85450;strokeWidth=1;exitX=1;exitY=0;exitDx=0;exitDy=0;entryX=1;entryY=0;entryDx=0;entryDy=0;fillColor=#f8cecc;" edge="1" parent="7rcCzId-d-z-wgNafooQ-1" source="7rcCzId-d-z-wgNafooQ-9" target="7rcCzId-d-z-wgNafooQ-11">
          <mxGeometry width="50" height="50" relative="1" as="geometry">
            <mxPoint x="360.9375" y="44" as="sourcePoint" />
            <mxPoint x="412.5" y="-11" as="targetPoint" />
            <Array as="points">
              <mxPoint x="340.3125" y="77" />
              <mxPoint x="319.6875" y="55" />
              <mxPoint x="299.0625" y="22" />
            </Array>
          </mxGeometry>
        </mxCell>
        <mxCell id="7rcCzId-d-z-wgNafooQ-27" value="" style="curved=1;endArrow=classic;html=1;rounded=0;fontSize=18;strokeColor=#b85450;strokeWidth=1;exitX=0.5;exitY=0;exitDx=0;exitDy=0;entryX=0.5;entryY=0;entryDx=0;entryDy=0;fillColor=#f8cecc;" edge="1" parent="7rcCzId-d-z-wgNafooQ-1" source="7rcCzId-d-z-wgNafooQ-11" target="7rcCzId-d-z-wgNafooQ-10">
          <mxGeometry width="50" height="50" relative="1" as="geometry">
            <mxPoint x="360.9375" y="44" as="sourcePoint" />
            <mxPoint x="412.5" y="-11" as="targetPoint" />
            <Array as="points">
              <mxPoint x="185.625" />
              <mxPoint x="165" />
            </Array>
          </mxGeometry>
        </mxCell>
        <mxCell id="7rcCzId-d-z-wgNafooQ-28" value="15" style="edgeLabel;html=1;align=center;verticalAlign=middle;resizable=0;points=[];fontSize=14;container=0;" vertex="1" connectable="0" parent="7rcCzId-d-z-wgNafooQ-27">
          <mxGeometry x="0.0313" y="4" relative="1" as="geometry">
            <mxPoint as="offset" />
          </mxGeometry>
        </mxCell>
        <mxCell id="7rcCzId-d-z-wgNafooQ-29" value="4" style="curved=1;endArrow=classic;html=1;rounded=0;fontSize=14;strokeColor=#b85450;strokeWidth=1;entryX=0;entryY=1;entryDx=0;entryDy=0;exitX=0;exitY=1;exitDx=0;exitDy=0;fillColor=#f8cecc;" edge="1" parent="7rcCzId-d-z-wgNafooQ-1" source="7rcCzId-d-z-wgNafooQ-12" target="7rcCzId-d-z-wgNafooQ-8">
          <mxGeometry width="50" height="50" relative="1" as="geometry">
            <mxPoint x="92.8125" y="220" as="sourcePoint" />
            <mxPoint x="20.625" y="165" as="targetPoint" />
            <Array as="points">
              <mxPoint x="30.9375" y="231" />
              <mxPoint y="198" />
            </Array>
          </mxGeometry>
        </mxCell>
        <mxCell id="7rcCzId-d-z-wgNafooQ-30" value="" style="endArrow=classic;html=1;rounded=0;fontSize=14;strokeColor=#000000;strokeWidth=1;exitX=0.5;exitY=0;exitDx=0;exitDy=0;entryX=0.5;entryY=1;entryDx=0;entryDy=0;" edge="1" parent="7rcCzId-d-z-wgNafooQ-1" source="7rcCzId-d-z-wgNafooQ-13" target="7rcCzId-d-z-wgNafooQ-11">
          <mxGeometry relative="1" as="geometry">
            <mxPoint x="300.3125" y="170" as="sourcePoint" />
            <mxPoint x="400.3125" y="170" as="targetPoint" />
          </mxGeometry>
        </mxCell>
        <mxCell id="7rcCzId-d-z-wgNafooQ-31" value="13" style="edgeLabel;resizable=0;html=1;align=center;verticalAlign=middle;fontSize=14;" connectable="0" vertex="1" parent="7rcCzId-d-z-wgNafooQ-30">
          <mxGeometry relative="1" as="geometry" />
        </mxCell>
        <mxCell id="7rcCzId-d-z-wgNafooQ-32" value="" style="endArrow=classic;html=1;rounded=0;fontSize=14;strokeColor=#82b366;strokeWidth=1;exitX=0.5;exitY=1;exitDx=0;exitDy=0;fillColor=#d5e8d4;" edge="1" parent="1" source="7rcCzId-d-z-wgNafooQ-10">
          <mxGeometry relative="1" as="geometry">
            <mxPoint x="730" y="1740" as="sourcePoint" />
            <mxPoint x="543" y="1750" as="targetPoint" />
          </mxGeometry>
        </mxCell>
        <mxCell id="7rcCzId-d-z-wgNafooQ-33" value="0" style="edgeLabel;resizable=0;html=1;align=center;verticalAlign=middle;fontSize=14;" connectable="0" vertex="1" parent="7rcCzId-d-z-wgNafooQ-32">
          <mxGeometry relative="1" as="geometry" />
        </mxCell>
        <mxCell id="7rcCzId-d-z-wgNafooQ-34" value="" style="group" vertex="1" connectable="0" parent="1">
          <mxGeometry x="29.6875" y="1880" width="340.3125" height="240" as="geometry" />
        </mxCell>
        <mxCell id="7rcCzId-d-z-wgNafooQ-35" value="" style="curved=1;endArrow=classic;html=1;rounded=0;fontSize=14;strokeColor=#b85450;strokeWidth=1;exitX=1;exitY=1;exitDx=0;exitDy=0;fillColor=#f8cecc;" edge="1" parent="7rcCzId-d-z-wgNafooQ-34" source="7rcCzId-d-z-wgNafooQ-42">
          <mxGeometry width="50" height="50" relative="1" as="geometry">
            <mxPoint x="320.3125" y="230" as="sourcePoint" />
            <mxPoint x="250.3125" y="200" as="targetPoint" />
            <Array as="points">
              <mxPoint x="334.3125" y="190" />
              <mxPoint x="310.3125" y="210" />
            </Array>
          </mxGeometry>
        </mxCell>
        <mxCell id="7rcCzId-d-z-wgNafooQ-36" value="4+7" style="edgeLabel;html=1;align=center;verticalAlign=middle;resizable=0;points=[];fontSize=14;container=0;" vertex="1" connectable="0" parent="7rcCzId-d-z-wgNafooQ-35">
          <mxGeometry x="-0.0474" y="3" relative="1" as="geometry">
            <mxPoint x="1" y="1" as="offset" />
          </mxGeometry>
        </mxCell>
        <mxCell id="7rcCzId-d-z-wgNafooQ-37" value="" style="curved=1;endArrow=classic;html=1;rounded=0;fontSize=14;strokeColor=#b85450;strokeWidth=1;exitX=0.25;exitY=1;exitDx=0;exitDy=0;exitPerimeter=0;fillColor=#f8cecc;" edge="1" parent="7rcCzId-d-z-wgNafooQ-34" source="7rcCzId-d-z-wgNafooQ-46">
          <mxGeometry width="50" height="50" relative="1" as="geometry">
            <mxPoint x="240.3125" y="200" as="sourcePoint" />
            <mxPoint x="130.3125" y="200" as="targetPoint" />
            <Array as="points">
              <mxPoint x="190.3125" y="240" />
              <mxPoint x="160.3125" y="240" />
            </Array>
          </mxGeometry>
        </mxCell>
        <mxCell id="7rcCzId-d-z-wgNafooQ-38" value="4+7" style="edgeLabel;html=1;align=center;verticalAlign=middle;resizable=0;points=[];fontSize=14;container=0;" vertex="1" connectable="0" parent="7rcCzId-d-z-wgNafooQ-37">
          <mxGeometry x="0.0188" y="2" relative="1" as="geometry">
            <mxPoint as="offset" />
          </mxGeometry>
        </mxCell>
        <mxCell id="7rcCzId-d-z-wgNafooQ-39" value="" style="curved=1;endArrow=classic;html=1;rounded=0;fontSize=18;strokeColor=#b85450;strokeWidth=1;exitX=0;exitY=0;exitDx=0;exitDy=0;fillColor=#f8cecc;" edge="1" parent="7rcCzId-d-z-wgNafooQ-34" source="7rcCzId-d-z-wgNafooQ-43">
          <mxGeometry width="50" height="50" relative="1" as="geometry">
            <mxPoint x="360.9375" y="44" as="sourcePoint" />
            <mxPoint x="20.625" y="110" as="targetPoint" />
            <Array as="points">
              <mxPoint x="51.5625" y="28.59999999999991" />
            </Array>
          </mxGeometry>
        </mxCell>
        <mxCell id="7rcCzId-d-z-wgNafooQ-40" value="15+7" style="edgeLabel;html=1;align=center;verticalAlign=middle;resizable=0;points=[];fontSize=14;container=0;" vertex="1" connectable="0" parent="7rcCzId-d-z-wgNafooQ-39">
          <mxGeometry x="0.0894" y="8" relative="1" as="geometry">
            <mxPoint as="offset" />
          </mxGeometry>
        </mxCell>
        <mxCell id="7rcCzId-d-z-wgNafooQ-41" value="&lt;font style=&quot;font-size: 18px&quot;&gt;s&lt;/font&gt;" style="ellipse;whiteSpace=wrap;html=1;aspect=fixed;container=0;" vertex="1" parent="7rcCzId-d-z-wgNafooQ-34">
          <mxGeometry x="10.3125" y="110" width="41.25" height="41.25" as="geometry" />
        </mxCell>
        <mxCell id="7rcCzId-d-z-wgNafooQ-42" value="&lt;font style=&quot;font-size: 18px&quot;&gt;t&lt;/font&gt;" style="ellipse;whiteSpace=wrap;html=1;aspect=fixed;container=0;" vertex="1" parent="7rcCzId-d-z-wgNafooQ-34">
          <mxGeometry x="299.0625" y="110" width="41.25" height="41.25" as="geometry" />
        </mxCell>
        <mxCell id="7rcCzId-d-z-wgNafooQ-43" value="&lt;font style=&quot;font-size: 18px&quot;&gt;1&lt;/font&gt;" style="ellipse;whiteSpace=wrap;html=1;aspect=fixed;container=0;" vertex="1" parent="7rcCzId-d-z-wgNafooQ-34">
          <mxGeometry x="92.8125" y="22" width="41.25" height="41.25" as="geometry" />
        </mxCell>
        <mxCell id="7rcCzId-d-z-wgNafooQ-44" value="&lt;font style=&quot;font-size: 18px&quot;&gt;2&lt;/font&gt;" style="ellipse;whiteSpace=wrap;html=1;aspect=fixed;container=0;" vertex="1" parent="7rcCzId-d-z-wgNafooQ-34">
          <mxGeometry x="216.5625" y="22" width="41.25" height="41.25" as="geometry" />
        </mxCell>
        <mxCell id="7rcCzId-d-z-wgNafooQ-45" value="&lt;font style=&quot;font-size: 18px&quot;&gt;3&lt;/font&gt;" style="ellipse;whiteSpace=wrap;html=1;aspect=fixed;container=0;" vertex="1" parent="7rcCzId-d-z-wgNafooQ-34">
          <mxGeometry x="92.8125" y="176" width="41.25" height="41.25" as="geometry" />
        </mxCell>
        <mxCell id="7rcCzId-d-z-wgNafooQ-46" value="&lt;font style=&quot;font-size: 17px&quot;&gt;4&lt;/font&gt;" style="ellipse;whiteSpace=wrap;html=1;aspect=fixed;container=0;" vertex="1" parent="7rcCzId-d-z-wgNafooQ-34">
          <mxGeometry x="216.5625" y="176" width="41.25" height="41.25" as="geometry" />
        </mxCell>
        <mxCell id="7rcCzId-d-z-wgNafooQ-47" value="" style="endArrow=classic;html=1;rounded=0;exitX=0.75;exitY=-0.025;exitDx=0;exitDy=0;exitPerimeter=0;fillColor=#d5e8d4;strokeColor=#82b366;" edge="1" parent="7rcCzId-d-z-wgNafooQ-34" source="7rcCzId-d-z-wgNafooQ-41" target="7rcCzId-d-z-wgNafooQ-43">
          <mxGeometry relative="1" as="geometry">
            <mxPoint x="257.8125" y="99" as="sourcePoint" />
            <mxPoint x="360.9375" y="99" as="targetPoint" />
          </mxGeometry>
        </mxCell>
        <mxCell id="7rcCzId-d-z-wgNafooQ-48" value="&lt;font style=&quot;font-size: 13px&quot;&gt;0&lt;/font&gt;" style="edgeLabel;resizable=0;html=1;align=center;verticalAlign=middle;container=0;" connectable="0" vertex="1" parent="7rcCzId-d-z-wgNafooQ-47">
          <mxGeometry relative="1" as="geometry" />
        </mxCell>
        <mxCell id="7rcCzId-d-z-wgNafooQ-49" value="0" style="endArrow=classic;html=1;rounded=0;exitX=1;exitY=1;exitDx=0;exitDy=0;entryX=0;entryY=0;entryDx=0;entryDy=0;" edge="1" parent="7rcCzId-d-z-wgNafooQ-34" source="7rcCzId-d-z-wgNafooQ-41" target="7rcCzId-d-z-wgNafooQ-45">
          <mxGeometry relative="1" as="geometry">
            <mxPoint x="51.5625" y="119.90000000000009" as="sourcePoint" />
            <mxPoint x="107.97955032394336" y="69.1783852325691" as="targetPoint" />
          </mxGeometry>
        </mxCell>
        <mxCell id="7rcCzId-d-z-wgNafooQ-50" value="4" style="edgeLabel;resizable=0;html=1;align=center;verticalAlign=middle;fontSize=14;container=0;" connectable="0" vertex="1" parent="7rcCzId-d-z-wgNafooQ-49">
          <mxGeometry relative="1" as="geometry" />
        </mxCell>
        <mxCell id="7rcCzId-d-z-wgNafooQ-51" value="" style="endArrow=classic;html=1;rounded=0;exitX=1;exitY=0;exitDx=0;exitDy=0;entryX=0;entryY=1;entryDx=0;entryDy=0;fillColor=#d5e8d4;strokeColor=#82b366;" edge="1" parent="7rcCzId-d-z-wgNafooQ-34" source="7rcCzId-d-z-wgNafooQ-46" target="7rcCzId-d-z-wgNafooQ-42">
          <mxGeometry relative="1" as="geometry">
            <mxPoint x="257.8125" y="99" as="sourcePoint" />
            <mxPoint x="360.9375" y="99" as="targetPoint" />
          </mxGeometry>
        </mxCell>
        <mxCell id="7rcCzId-d-z-wgNafooQ-52" value="8" style="edgeLabel;resizable=0;html=1;align=center;verticalAlign=middle;fontSize=13;container=0;" connectable="0" vertex="1" parent="7rcCzId-d-z-wgNafooQ-51">
          <mxGeometry relative="1" as="geometry" />
        </mxCell>
        <mxCell id="7rcCzId-d-z-wgNafooQ-53" value="" style="endArrow=classic;html=1;rounded=0;exitX=1;exitY=1;exitDx=0;exitDy=0;entryX=0;entryY=0;entryDx=0;entryDy=0;" edge="1" parent="7rcCzId-d-z-wgNafooQ-34" source="7rcCzId-d-z-wgNafooQ-44" target="7rcCzId-d-z-wgNafooQ-42">
          <mxGeometry relative="1" as="geometry">
            <mxPoint x="257.8125" y="99" as="sourcePoint" />
            <mxPoint x="360.9375" y="99" as="targetPoint" />
          </mxGeometry>
        </mxCell>
        <mxCell id="7rcCzId-d-z-wgNafooQ-54" value="0" style="edgeLabel;resizable=0;html=1;align=center;verticalAlign=middle;fontSize=13;container=0;" connectable="0" vertex="1" parent="7rcCzId-d-z-wgNafooQ-53">
          <mxGeometry relative="1" as="geometry" />
        </mxCell>
        <mxCell id="7rcCzId-d-z-wgNafooQ-55" value="" style="endArrow=classic;html=1;rounded=0;exitX=1;exitY=0.5;exitDx=0;exitDy=0;entryX=0;entryY=0.5;entryDx=0;entryDy=0;" edge="1" parent="7rcCzId-d-z-wgNafooQ-34" source="7rcCzId-d-z-wgNafooQ-43" target="7rcCzId-d-z-wgNafooQ-44">
          <mxGeometry relative="1" as="geometry">
            <mxPoint x="257.8125" y="99" as="sourcePoint" />
            <mxPoint x="360.9375" y="99" as="targetPoint" />
          </mxGeometry>
        </mxCell>
        <mxCell id="7rcCzId-d-z-wgNafooQ-56" value="5" style="edgeLabel;resizable=0;html=1;align=center;verticalAlign=middle;fontSize=13;container=0;" connectable="0" vertex="1" parent="7rcCzId-d-z-wgNafooQ-55">
          <mxGeometry relative="1" as="geometry" />
        </mxCell>
        <mxCell id="7rcCzId-d-z-wgNafooQ-57" value="" style="endArrow=classic;html=1;rounded=0;exitX=1;exitY=0.5;exitDx=0;exitDy=0;entryX=0;entryY=0.5;entryDx=0;entryDy=0;fillColor=#d5e8d4;strokeColor=#82b366;" edge="1" parent="7rcCzId-d-z-wgNafooQ-34">
          <mxGeometry relative="1" as="geometry">
            <mxPoint x="134.0625" y="197.45000000000005" as="sourcePoint" />
            <mxPoint x="216.5625" y="197.45000000000005" as="targetPoint" />
          </mxGeometry>
        </mxCell>
        <mxCell id="7rcCzId-d-z-wgNafooQ-58" value="7" style="edgeLabel;resizable=0;html=1;align=center;verticalAlign=middle;fontSize=13;container=0;" connectable="0" vertex="1" parent="7rcCzId-d-z-wgNafooQ-57">
          <mxGeometry relative="1" as="geometry" />
        </mxCell>
        <mxCell id="7rcCzId-d-z-wgNafooQ-59" value="&lt;font style=&quot;font-size: 14px&quot;&gt;15&lt;/font&gt;" style="curved=1;endArrow=classic;html=1;rounded=0;fontSize=18;strokeColor=#b85450;strokeWidth=1;exitX=1;exitY=0;exitDx=0;exitDy=0;entryX=1;entryY=0;entryDx=0;entryDy=0;fillColor=#f8cecc;" edge="1" parent="7rcCzId-d-z-wgNafooQ-34" source="7rcCzId-d-z-wgNafooQ-42" target="7rcCzId-d-z-wgNafooQ-44">
          <mxGeometry width="50" height="50" relative="1" as="geometry">
            <mxPoint x="360.9375" y="44" as="sourcePoint" />
            <mxPoint x="412.5" y="-11" as="targetPoint" />
            <Array as="points">
              <mxPoint x="340.3125" y="77" />
              <mxPoint x="319.6875" y="55" />
              <mxPoint x="299.0625" y="22" />
            </Array>
          </mxGeometry>
        </mxCell>
        <mxCell id="7rcCzId-d-z-wgNafooQ-60" value="" style="curved=1;endArrow=classic;html=1;rounded=0;fontSize=18;strokeColor=#b85450;strokeWidth=1;exitX=0.5;exitY=0;exitDx=0;exitDy=0;entryX=0.5;entryY=0;entryDx=0;entryDy=0;fillColor=#f8cecc;" edge="1" parent="7rcCzId-d-z-wgNafooQ-34" source="7rcCzId-d-z-wgNafooQ-44" target="7rcCzId-d-z-wgNafooQ-43">
          <mxGeometry width="50" height="50" relative="1" as="geometry">
            <mxPoint x="360.9375" y="44" as="sourcePoint" />
            <mxPoint x="412.5" y="-11" as="targetPoint" />
            <Array as="points">
              <mxPoint x="185.625" />
              <mxPoint x="165" />
            </Array>
          </mxGeometry>
        </mxCell>
        <mxCell id="7rcCzId-d-z-wgNafooQ-61" value="15" style="edgeLabel;html=1;align=center;verticalAlign=middle;resizable=0;points=[];fontSize=14;container=0;" vertex="1" connectable="0" parent="7rcCzId-d-z-wgNafooQ-60">
          <mxGeometry x="0.0313" y="4" relative="1" as="geometry">
            <mxPoint as="offset" />
          </mxGeometry>
        </mxCell>
        <mxCell id="7rcCzId-d-z-wgNafooQ-62" value="4" style="curved=1;endArrow=classic;html=1;rounded=0;fontSize=14;strokeColor=#b85450;strokeWidth=1;entryX=0;entryY=1;entryDx=0;entryDy=0;exitX=0;exitY=1;exitDx=0;exitDy=0;fillColor=#f8cecc;" edge="1" parent="7rcCzId-d-z-wgNafooQ-34" source="7rcCzId-d-z-wgNafooQ-45" target="7rcCzId-d-z-wgNafooQ-41">
          <mxGeometry width="50" height="50" relative="1" as="geometry">
            <mxPoint x="92.8125" y="220" as="sourcePoint" />
            <mxPoint x="20.625" y="165" as="targetPoint" />
            <Array as="points">
              <mxPoint x="30.9375" y="231" />
              <mxPoint y="198" />
            </Array>
          </mxGeometry>
        </mxCell>
        <mxCell id="7rcCzId-d-z-wgNafooQ-63" value="" style="endArrow=classic;html=1;rounded=0;fontSize=14;strokeColor=#000000;strokeWidth=1;exitX=0.5;exitY=0;exitDx=0;exitDy=0;entryX=0.5;entryY=1;entryDx=0;entryDy=0;" edge="1" parent="7rcCzId-d-z-wgNafooQ-34" source="7rcCzId-d-z-wgNafooQ-46" target="7rcCzId-d-z-wgNafooQ-44">
          <mxGeometry relative="1" as="geometry">
            <mxPoint x="300.3125" y="170" as="sourcePoint" />
            <mxPoint x="400.3125" y="170" as="targetPoint" />
          </mxGeometry>
        </mxCell>
        <mxCell id="7rcCzId-d-z-wgNafooQ-64" value="13" style="edgeLabel;resizable=0;html=1;align=center;verticalAlign=middle;fontSize=14;" connectable="0" vertex="1" parent="7rcCzId-d-z-wgNafooQ-63">
          <mxGeometry relative="1" as="geometry" />
        </mxCell>
        <mxCell id="7rcCzId-d-z-wgNafooQ-68" value="" style="curved=1;endArrow=classic;html=1;rounded=0;exitX=1;exitY=0;exitDx=0;exitDy=0;entryX=0.691;entryY=0.994;entryDx=0;entryDy=0;entryPerimeter=0;fillColor=#f8cecc;strokeColor=#b85450;" edge="1" parent="7rcCzId-d-z-wgNafooQ-34" source="7rcCzId-d-z-wgNafooQ-45" target="7rcCzId-d-z-wgNafooQ-43">
          <mxGeometry width="50" height="50" relative="1" as="geometry">
            <mxPoint x="360.3125" y="160" as="sourcePoint" />
            <mxPoint x="410.3125" y="110" as="targetPoint" />
            <Array as="points">
              <mxPoint x="170.3125" y="150" />
            </Array>
          </mxGeometry>
        </mxCell>
        <mxCell id="7rcCzId-d-z-wgNafooQ-69" value="&lt;font style=&quot;font-size: 13px&quot;&gt;7&lt;/font&gt;" style="edgeLabel;html=1;align=center;verticalAlign=middle;resizable=0;points=[];" vertex="1" connectable="0" parent="7rcCzId-d-z-wgNafooQ-68">
          <mxGeometry x="0.138" y="7" relative="1" as="geometry">
            <mxPoint as="offset" />
          </mxGeometry>
        </mxCell>
        <mxCell id="7rcCzId-d-z-wgNafooQ-65" value="" style="endArrow=classic;html=1;rounded=0;fontSize=14;strokeColor=#82b366;strokeWidth=1;exitX=0.5;exitY=1;exitDx=0;exitDy=0;fillColor=#d5e8d4;" edge="1" parent="1" source="7rcCzId-d-z-wgNafooQ-43">
          <mxGeometry relative="1" as="geometry">
            <mxPoint x="330" y="2050" as="sourcePoint" />
            <mxPoint x="143" y="2060" as="targetPoint" />
          </mxGeometry>
        </mxCell>
        <mxCell id="7rcCzId-d-z-wgNafooQ-66" value="0" style="edgeLabel;resizable=0;html=1;align=center;verticalAlign=middle;fontSize=14;" connectable="0" vertex="1" parent="7rcCzId-d-z-wgNafooQ-65">
          <mxGeometry relative="1" as="geometry" />
        </mxCell>
        <mxCell id="7rcCzId-d-z-wgNafooQ-67" value="&lt;span style=&quot;color: rgb(0 , 0 , 0) ; font-family: &amp;#34;helvetica&amp;#34; ; font-size: 14px ; font-style: normal ; font-weight: 400 ; letter-spacing: normal ; text-align: center ; text-indent: 0px ; text-transform: none ; word-spacing: 0px ; background-color: rgb(248 , 249 , 250) ; display: inline ; float: none&quot;&gt;so we have total flow as 15+4+7&lt;/span&gt;" style="text;whiteSpace=wrap;html=1;" vertex="1" parent="1">
          <mxGeometry x="180" y="2199" width="210" height="30" as="geometry" />
        </mxCell>
        <mxCell id="7rcCzId-d-z-wgNafooQ-70" value="" style="line;strokeWidth=2;html=1;fontSize=14;" vertex="1" parent="1">
          <mxGeometry x="30" y="2250" width="740" height="10" as="geometry" />
        </mxCell>
      </root>
    </mxGraphModel>
  </diagram>
</mxfile>
